<?xml version="1.0" encoding="UTF-8" standalone="no"?>
<svg
   width="95.330mm"
   height="95.227mm"
   viewBox="-694.665039 4.386688 95.330078 95.226639"
   version="1.1"
   id="svg79"
   sodipodi:docname="StudioLaserCuttingSquare_350-150by10-20.svg"
   inkscape:version="1.4 (86a8ad7, 2024-10-11)"
   inkscape:export-filename="C:\Users\Maste\Downloads\StudioLaserCuttingSquare_350-150by10-20.png"
   inkscape:export-xdpi="96"
   inkscape:export-ydpi="96"
   xmlns:inkscape="http://www.inkscape.org/namespaces/inkscape"
   xmlns:sodipodi="http://sodipodi.sourceforge.net/DTD/sodipodi-0.dtd"
   xmlns="http://www.w3.org/2000/svg"
   xmlns:svg="http://www.w3.org/2000/svg">
  <defs
     id="defs79" />
  <sodipodi:namedview
     id="namedview79"
     pagecolor="#ffffff"
     bordercolor="#000000"
     borderopacity="0.25"
     inkscape:showpageshadow="2"
     inkscape:pageopacity="0.0"
     inkscape:pagecheckerboard="0"
     inkscape:deskcolor="#d1d1d1"
     inkscape:document-units="mm"
     inkscape:zoom="1.18223"
     inkscape:cx="137.87503"
     inkscape:cy="222.03801"
     inkscape:window-width="1920"
     inkscape:window-height="1111"
     inkscape:window-x="-9"
     inkscape:window-y="-9"
     inkscape:window-maximized="1"
     inkscape:current-layer="svg79" />
  <path
     style="stroke:#000000;stroke-width:0.050000mm;fill:none"
     d="M-0.017992,-297.020905L-95.348068,-297.020905L-95.348068,-201.794266L-0.017992,-201.794266L-0.017992,-297.020905z"
     id="path1"
     transform="matrix(-1,0,0,1,-694.683044,301.407593)" />
  <path
     style="fill:none;stroke:#0000ff;stroke-width:0.05mm"
     d="m -682.16648,14.024765 c 0.0924,0 0.18203,0.02185 0.27022,0.06592 0.0882,0.04157 0.16263,0.09937 0.22049,0.176544 0.0663,0.08139 0.11994,0.176178 0.15981,0.286499 0.036,0.110291 0.055,0.242432 0.055,0.39679 0,0.169494 -0.0148,0.319976 -0.0441,0.452118 -0.0328,0.132141 -0.0797,0.267456 -0.14322,0.402435 h -0.38594 v -0.02222 c 0.0995,-0.112762 0.17533,-0.248077 0.22613,-0.402405 0.0526,-0.154022 0.0773,-0.297424 0.0773,-0.429931 0,-0.189942 -0.0346,-0.33902 -0.10478,-0.446503 -0.0688,-0.106049 -0.16545,-0.159638 -0.28681,-0.159638 -0.10195,0 -0.17745,0.02609 -0.22578,0.07721 -0.0469,0.05215 -0.0854,0.126831 -0.11571,0.225861 l -0.0497,0.259002 -0.0497,0.28122 c -0.0441,0.206878 -0.11712,0.358398 -0.22049,0.457428 -0.10583,0.09937 -0.24377,0.149048 -0.4131,0.149048 -0.19438,0 -0.35278,-0.07999 -0.47413,-0.242798 -0.12418,-0.165284 -0.18733,-0.371796 -0.18733,-0.622681 0,-0.165283 0.0162,-0.314331 0.0494,-0.446503 0.0303,-0.134948 0.0663,-0.25653 0.11042,-0.364013 h 0.36372 v 0.02222 c -0.073,0.08811 -0.13371,0.20401 -0.18204,0.347107 -0.0508,0.143403 -0.0769,0.291047 -0.0769,0.441193 0,0.165253 0.0356,0.29776 0.10442,0.39679 0.0663,0.09936 0.15452,0.148712 0.26458,0.148712 0.0967,0 0.1711,-0.02326 0.22613,-0.07153 0.055,-0.05109 0.0977,-0.139191 0.12665,-0.264649 l 0.0497,-0.281219 c 0.0222,-0.123688 0.0441,-0.228699 0.0663,-0.313996 0.0441,-0.16806 0.11289,-0.29776 0.20391,-0.385864 0.0921,-0.08807 0.22048,-0.132141 0.38559,-0.132141 z"
     id="path2" />
  <path
     style="fill:none;stroke:#0000ff;stroke-width:0.05mm"
     d="m -683.12004,12.024948 c 0.10336,0 0.19861,0.01938 0.28681,0.0553 0.0882,0.03314 0.16404,0.08246 0.22577,0.148712 0.0815,0.07718 0.14217,0.170898 0.18204,0.281219 0.0413,0.107483 0.0607,0.242432 0.0607,0.407715 v 0.308716 h 0.85972 v 0.308685 h -2.31492 v -0.628328 c 0,-0.139191 0.0137,-0.256195 0.0385,-0.352753 0.0222,-0.09512 0.0593,-0.179016 0.11042,-0.253357 0.0593,-0.08844 0.13229,-0.155761 0.22048,-0.20404 0.0882,-0.04687 0.19826,-0.07187 0.33056,-0.07187 z"
     id="path3" />
  <path
     style="fill:none;stroke:#0000ff;stroke-width:0.05mm"
     d="m -683.10875,12.344894 c -0.0801,0 -0.15029,0.01517 -0.20956,0.04407 -0.0579,0.02606 -0.10618,0.06625 -0.14322,0.121215 -0.0332,0.05252 -0.0568,0.108887 -0.072,0.170929 -0.0138,0.06342 -0.0219,0.143403 -0.0219,0.242432 v 0.30307 h 0.92604 v -0.259033 c 0,-0.124023 -0.0109,-0.225861 -0.0332,-0.30304 -0.0219,-0.07718 -0.0564,-0.13919 -0.10478,-0.187469 -0.0508,-0.04687 -0.10477,-0.07999 -0.1598,-0.09903 -0.055,-0.02222 -0.11571,-0.03314 -0.18168,-0.03314 z"
     id="path4" />
  <path
     style="fill:none;stroke:#0000ff;stroke-width:0.05mm"
     d="m -681.50503,10.099777 v 1.521637 h -2.31492 v -1.521637 h 0.27551 v 1.212982 h 0.63395 v -1.212982 h 0.27552 v 1.212982 h 0.85442 v -1.212982 z"
     id="path5" />
  <path
     style="fill:none;stroke:#0000ff;stroke-width:0.05mm"
     d="m -681.50503,8.0907742 v 1.521302 h -2.31492 v -1.521302 h 0.27551 v 1.212586 h 0.63395 v -1.212586 h 0.27552 v 1.212586 h 0.85442 v -1.212586 z"
     id="path6" />
  <path
     style="fill:none;stroke:#0000ff;stroke-width:0.05mm"
     d="m -682.65685,5.6529392 c 0.20955,0 0.40111,0.046844 0.57327,0.137756 0.16933,0.092346 0.30021,0.213562 0.39123,0.364044 0.0663,0.107483 0.1143,0.224488 0.14323,0.352753 0.0303,0.129303 0.0441,0.300232 0.0441,0.512726 v 0.584259 h -2.31492 v -0.57898 c 0,-0.223083 0.0166,-0.402435 0.0497,-0.534576 0.0328,-0.132507 0.0797,-0.24527 0.13758,-0.341827 0.0991,-0.154358 0.23142,-0.275574 0.39688,-0.363678 0.16263,-0.08844 0.3556,-0.132477 0.5789,-0.132477 z"
     id="path7" />
  <path
     style="fill:none;stroke:#0000ff;stroke-width:0.05mm"
     d="m -682.66249,5.9728852 c -0.17921,0 -0.33197,0.031372 -0.45755,0.093384 -0.12383,0.063446 -0.22296,0.157196 -0.29739,0.281219 -0.0512,0.092346 -0.0857,0.190277 -0.10478,0.292145 -0.0222,0.103607 -0.0332,0.226227 -0.0332,0.369293 v 0.286866 h 1.78576 v -0.286866 c 0,-0.145874 -0.0109,-0.275543 -0.0328,-0.385864 -0.0222,-0.110291 -0.0621,-0.210724 -0.12135,-0.30307 -0.073,-0.117004 -0.16828,-0.20401 -0.28681,-0.259003 -0.12101,-0.05777 -0.27129,-0.088104 -0.45191,-0.088104 z"
     id="path8" />
  <path
     style="fill:none;stroke:#0000ff;stroke-width:0.05mm"
     d="m -691.985,16.91288 c 0,0.103576 -0.019,0.198394 -0.055,0.286834 -0.0371,0.08527 -0.0868,0.159638 -0.14887,0.225891 -0.0811,0.07718 -0.17639,0.136384 -0.28646,0.176545 -0.1076,0.04123 -0.24271,0.06061 -0.40781,0.06061 h -0.30868 v 0.859863 h -0.30868 v -2.309601 h 0.62829 c 0.139,0 0.25612,0.01373 0.35278,0.03839 0.0949,0.02222 0.18168,0.05817 0.25894,0.104675 0.0882,0.05957 0.15593,0.132508 0.20391,0.220581 0.0469,0.08813 0.0716,0.201233 0.0716,0.336213 z"
     id="path9" />
  <path
     style="fill:none;stroke:#0000ff;stroke-width:0.05mm"
     d="m -692.30462,16.918495 c 0,-0.07718 -0.0152,-0.144806 -0.0441,-0.204041 -0.0261,-0.06201 -0.0688,-0.111694 -0.12665,-0.148681 -0.0526,-0.0289 -0.10901,-0.05112 -0.1711,-0.06625 -0.0631,-0.01373 -0.14323,-0.02185 -0.24236,-0.02185 h -0.30303 v 0.920441 h 0.25894 c 0.12382,0 0.22613,-0.01089 0.30303,-0.03314 0.0773,-0.02219 0.13935,-0.05637 0.18768,-0.104645 0.0508,-0.04684 0.0854,-0.09936 0.10442,-0.154358 0.0222,-0.0553 0.0332,-0.11734 0.0332,-0.187469 z"
     id="path10" />
  <path
     style="fill:none;stroke:#0000ff;stroke-width:0.05mm"
     d="m -690.20594,17.657112 c 0,0.284027 -0.0744,0.50711 -0.22049,0.672394 -0.14322,0.162811 -0.33619,0.242797 -0.57855,0.242797 -0.24659,0 -0.44098,-0.07999 -0.5842,-0.242797 -0.14358,-0.165284 -0.2152,-0.388367 -0.2152,-0.672394 0,-0.282623 0.0716,-0.504273 0.2152,-0.667053 0.14322,-0.165284 0.33761,-0.248108 0.5842,-0.248108 0.24236,0 0.43533,0.08282 0.57855,0.248108 0.14605,0.16278 0.22049,0.38443 0.22049,0.667053 z"
     id="path11" />
  <path
     style="fill:none;stroke:#0000ff;stroke-width:0.05mm"
     d="m -690.50333,17.657112 c 0,-0.223389 -0.0441,-0.388672 -0.13229,-0.496155 -0.0882,-0.11029 -0.21238,-0.165253 -0.36936,-0.165253 -0.1584,0 -0.28117,0.05496 -0.36936,0.165253 -0.0854,0.107483 -0.12665,0.272766 -0.12665,0.496155 0,0.217773 0.0413,0.383056 0.12665,0.496185 0.0882,0.110291 0.21096,0.165283 0.36936,0.165283 0.15698,0 0.28116,-0.05499 0.36936,-0.165283 0.0882,-0.11029 0.13229,-0.275574 0.13229,-0.496185 z"
     id="path12" />
  <path
     style="fill:none;stroke:#0000ff;stroke-width:0.05mm"
     d="m -687.57104,16.791664 -0.45191,1.730957 h -0.27023 l -0.44626,-1.334168 -0.44098,1.334168 h -0.27022 l -0.45756,-1.730957 h 0.30339 l 0.31962,1.339447 0.43533,-1.339447 h 0.23706 l 0.44662,1.339447 0.30304,-1.339447 z"
     id="path13" />
  <path
     style="fill:none;stroke:#0000ff;stroke-width:0.05mm"
     d="m -685.69674,17.684608 h -1.27881 c 0,0.107483 0.0137,0.201233 0.0441,0.28122 0.0328,0.07718 0.0769,0.141998 0.13229,0.192749 0.055,0.05252 0.11854,0.09094 0.19297,0.115966 0.073,0.02182 0.15558,0.03311 0.24801,0.03311 0.11712,0 0.23424,-0.02222 0.35277,-0.06625 0.12101,-0.04687 0.20673,-0.09515 0.25894,-0.143432 h 0.0109 v 0.319977 c -0.0963,0.04123 -0.19544,0.07578 -0.29739,0.104675 -0.10337,0.02466 -0.21238,0.03842 -0.32526,0.03842 -0.28681,0 -0.51153,-0.07721 -0.67275,-0.231536 -0.16263,-0.154358 -0.24236,-0.374604 -0.24236,-0.661469 0,-0.282257 0.0773,-0.50708 0.23142,-0.672333 0.15452,-0.168121 0.35843,-0.253753 0.61207,-0.253753 0.23425,0 0.41452,0.06909 0.5401,0.20404 0.12806,0.136383 0.19297,0.330902 0.19297,0.584259 z"
     id="path14" />
  <path
     style="fill:none;stroke:#0000ff;stroke-width:0.05mm"
     d="m -685.98354,17.464363 c 0,-0.154358 -0.0385,-0.271698 -0.11571,-0.353089 -0.0773,-0.08386 -0.19297,-0.126525 -0.34714,-0.126525 -0.15875,0 -0.28398,0.04687 -0.375,0.137817 -0.0924,0.09229 -0.14323,0.206482 -0.15416,0.341797 z"
     id="path15" />
  <path
     style="fill:none;stroke:#0000ff;stroke-width:0.05mm"
     d="m -684.17838,17.105964 h -0.0109 l -0.12664,-0.01654 c -0.0413,-0.007 -0.091,-0.01093 -0.14888,-0.01093 -0.0882,0 -0.17497,0.02045 -0.25929,0.06061 -0.0854,0.04123 -0.1651,0.09235 -0.24236,0.154358 v 1.229157 h -0.2921 v -1.730955 h 0.2921 v 0.253692 c 0.11713,-0.09091 0.22049,-0.155761 0.30868,-0.193084 0.0882,-0.03983 0.17781,-0.06061 0.27023,-0.06061 0.0508,0 0.0882,0.0028 0.11007,0.0056 l 0.0991,0.01093 z"
     id="path16" />
  <path
     transform="matrix(-1,0,0,1,-694.683044,301.407593)"
     style="stroke:#0000ff;stroke-width:0.050000mm;fill:none"
     d="M-16.043276,-290.687683C-16.094074,-290.64325,-16.13394,-290.58548,-16.164278,-290.516754C-16.197439,-290.4505,-16.21402,-290.363831,-16.21402,-290.257385C-16.21402,-290.149933,-16.194616,-290.053711,-16.158987,-289.965271C-16.121592,-289.879974,-16.06797,-289.805634,-15.999178,-289.73938C-15.921919,-289.665039,-15.829492,-289.610046,-15.723306,-289.574097C-15.616061,-289.540985,-15.50035,-289.524414,-15.376172,-289.524414C-15.246703,-289.524414,-15.119703,-289.540985,-14.995877,-289.574097C-14.874523,-289.602997,-14.77257,-289.636139,-14.692489,-289.673126L-14.692489,-289.998383L-14.714713,-289.998383C-14.802908,-289.939209,-14.904861,-289.889496,-15.023394,-289.849701C-15.144751,-289.812317,-15.260461,-289.794708,-15.370527,-289.794708C-15.43685,-289.794708,-15.505641,-289.805634,-15.580078,-289.827484C-15.653102,-289.849701,-15.71237,-289.879974,-15.756467,-289.921204C-15.803387,-289.968079,-15.839016,-290.017761,-15.861241,-290.070282C-15.885936,-290.125244,-15.899694,-290.194336,-15.899694,-290.279602C-15.899694,-290.363831,-15.885936,-290.431122,-15.861241,-290.483643C-15.835136,-290.538605,-15.797741,-290.582642,-15.750822,-290.615784C-15.702845,-290.644684,-15.6464,-290.665466,-15.580078,-290.676392C-15.514109,-290.690125,-15.442142,-290.698608,-15.365236,-290.698608L-15.227301,-290.698608L-15.227301,-290.957611L-15.33772,-290.957611C-15.494706,-290.957611,-15.619942,-290.987915,-15.71237,-291.051361C-15.807619,-291.117584,-15.855597,-291.213806,-15.855597,-291.343475C-15.855597,-291.398438,-15.841838,-291.445313,-15.817144,-291.486908C-15.794919,-291.530945,-15.762112,-291.565491,-15.718014,-291.591583C-15.673917,-291.616241,-15.625586,-291.63562,-15.574433,-291.646545C-15.522223,-291.657837,-15.465778,-291.663086,-15.403689,-291.663086C-15.304558,-291.663086,-15.199783,-291.643707,-15.089363,-291.608124C-14.979297,-291.575012,-14.874523,-291.52533,-14.775392,-291.459076L-14.758811,-291.459076L-14.758811,-291.784332C-14.831836,-291.820282,-14.929556,-291.853394,-15.050912,-291.883728C-15.175089,-291.91684,-15.294681,-291.93338,-15.409333,-291.93338C-15.522223,-291.93338,-15.621352,-291.922119,-15.706724,-291.900269C-15.794919,-291.878082,-15.873589,-291.84494,-15.943791,-291.800873C-16.016817,-291.748718,-16.072203,-291.68811,-16.109245,-291.619049C-16.149109,-291.54895,-16.169922,-291.467529,-16.169922,-291.376617C-16.169922,-291.246918,-16.123003,-291.135223,-16.031986,-291.040405C-15.939911,-290.943878,-15.833725,-290.88327,-15.71237,-290.858246L-15.71237,-290.836395C-15.759289,-290.827911,-15.814322,-290.810303,-15.877822,-290.781067C-15.943791,-290.755005,-15.999178,-290.723267,-16.043276,-290.687683z"
     id="path17" />
  <path
     transform="matrix(-1,0,0,1,-694.683044,301.407593)"
     style="stroke:#0000ff;stroke-width:0.050000mm;fill:none"
     d="M-18.252016,-290.307098C-18.252016,-290.199615,-18.231556,-290.097748,-18.191339,-289.998383C-18.154297,-289.899353,-18.100674,-289.816559,-18.03153,-289.750305C-17.957094,-289.675934,-17.8689,-289.619568,-17.766947,-289.579742C-17.663584,-289.543793,-17.543638,-289.524414,-17.408878,-289.524414C-17.279055,-289.524414,-17.156641,-289.539551,-17.039518,-289.568451C-16.92522,-289.593475,-16.827148,-289.625183,-16.747419,-289.662201L-16.747419,-289.987457L-16.769291,-289.987457C-16.853252,-289.932495,-16.952736,-289.88562,-17.067038,-289.849701C-17.179926,-289.812317,-17.293167,-289.794708,-17.403234,-289.794708C-17.476259,-289.794708,-17.546461,-289.802826,-17.612783,-289.822205C-17.681574,-289.844055,-17.745075,-289.879974,-17.800108,-289.932495C-17.844206,-289.976532,-17.877367,-290.028717,-17.899239,-290.092133C-17.924286,-290.154144,-17.938044,-290.226044,-17.938044,-290.307098C-17.938044,-290.387085,-17.922874,-290.456146,-17.893948,-290.511108C-17.867489,-290.566101,-17.830446,-290.610504,-17.783527,-290.64325C-17.728495,-290.67923,-17.662172,-290.705292,-17.585266,-290.720459C-17.508009,-290.738403,-17.421225,-290.748291,-17.325975,-290.748291C-17.2339,-290.748291,-17.145706,-290.739838,-17.061392,-290.726074L-16.84655,-290.692963L-16.84655,-291.883728L-18.235437,-291.883728L-18.235437,-291.613434L-17.144295,-291.613434L-17.144295,-290.996033L-17.281878,-291.001648L-17.403234,-291.007294C-17.527411,-291.007294,-17.636066,-290.996033,-17.728495,-290.974152C-17.823391,-290.954773,-17.911585,-290.919189,-17.993078,-290.863892C-18.072805,-290.808899,-18.136305,-290.734528,-18.180403,-290.64325C-18.227322,-290.555176,-18.252016,-290.442047,-18.252016,-290.307098z"
     id="path18" />
  <path
     transform="matrix(-1,0,0,1,-694.683044,301.407593)"
     style="stroke:#0000ff;stroke-width:0.050000mm;fill:none"
     d="M-20.288956,-290.73172C-20.288956,-290.315552,-20.222633,-290.010712,-20.090342,-289.816559C-19.960873,-289.620972,-19.7612,-289.524414,-19.489561,-289.524414C-19.209808,-289.524414,-19.005903,-289.620972,-18.877846,-289.816559C-18.752254,-290.014954,-18.690166,-290.318359,-18.690166,-290.726074C-18.690166,-291.136627,-18.753666,-291.440033,-18.883137,-291.63562C-19.011547,-291.829773,-19.214043,-291.927734,-19.489561,-291.927734C-19.765081,-291.927734,-19.966516,-291.828369,-20.095985,-291.629974C-20.224045,-291.43158,-20.288956,-291.131348,-20.288956,-290.73172z"
     id="path19" />
  <path
     transform="matrix(-1,0,0,1,-694.683044,301.407593)"
     style="stroke:#0000ff;stroke-width:0.050000mm;fill:none"
     d="M-19.880791,-290.026215C-19.916775,-290.110107,-19.941469,-290.208069,-19.952757,-290.318359C-19.966516,-290.431122,-19.97463,-290.568909,-19.97463,-290.73172C-19.97463,-290.886078,-19.966516,-291.019653,-19.952757,-291.134155C-19.941469,-291.25116,-19.915363,-291.350189,-19.8755,-291.43158C-19.842339,-291.511566,-19.792597,-291.572205,-19.726627,-291.613434C-19.663128,-291.653595,-19.58481,-291.674042,-19.489561,-291.674042C-19.39043,-291.674042,-19.308939,-291.653595,-19.247202,-291.613434C-19.183702,-291.572205,-19.132551,-291.511566,-19.092686,-291.43158C-19.059525,-291.354401,-19.03483,-291.252563,-19.021072,-291.12854C-19.010136,-291.007294,-19.004492,-290.872314,-19.004492,-290.726074C-19.004492,-290.563629,-19.010136,-290.428314,-19.021072,-290.318359C-19.032009,-290.210876,-19.055645,-290.115723,-19.092686,-290.031525C-19.125847,-289.950104,-19.172766,-289.888092,-19.235914,-289.844055C-19.302237,-289.802826,-19.386196,-289.783447,-19.489561,-289.783447C-19.58481,-289.783447,-19.663128,-289.802826,-19.726627,-289.844055C-19.792597,-289.884216,-19.84375,-289.944824,-19.880791,-290.026215z"
     id="path20" />
  <path
     transform="matrix(-1,0,0,1,-694.683044,301.407593)"
     style="stroke:#0000ff;stroke-width:0.050000mm;fill:none"
     d="M-5.090583,-278.249176L-3.839281,-278.249176L-3.839281,-278.486328L-4.32435,-278.486328L-4.32435,-280.029846L-3.839281,-280.029846L-3.839281,-280.244812C-3.90525,-280.244812,-3.974394,-280.250092,-4.048831,-280.261353C-4.125736,-280.272308,-4.18218,-280.286041,-4.219575,-280.30542C-4.266494,-280.330078,-4.303536,-280.36322,-4.329642,-280.404449C-4.358569,-280.444611,-4.37515,-280.498169,-4.379383,-280.564423L-4.622095,-280.564423L-4.622095,-278.486328L-5.090583,-278.486328L-5.090583,-278.249176z"
     id="path21" />
  <path
     transform="matrix(-1,0,0,1,-694.683044,301.407593)"
     style="stroke:#0000ff;stroke-width:0.050000mm;fill:none"
     d="M-7.244292,-279.406799C-7.244292,-278.990631,-7.178322,-278.686157,-7.046031,-278.491974C-6.916208,-278.296051,-6.716536,-278.19986,-6.44525,-278.19986C-6.165497,-278.19986,-5.961239,-278.296051,-5.83318,-278.491974C-5.707944,-278.690369,-5.645855,-278.993439,-5.645855,-279.40152C-5.645855,-279.812042,-5.709355,-280.115112,-5.838825,-280.311066C-5.966883,-280.505219,-6.169378,-280.60318,-6.44525,-280.60318C-6.72077,-280.60318,-6.921853,-280.503815,-7.051322,-280.30542C-7.179733,-280.107025,-7.244292,-279.806427,-7.244292,-279.406799z"
     id="path22" />
  <path
     transform="matrix(-1,0,0,1,-694.683044,301.407593)"
     style="stroke:#0000ff;stroke-width:0.050000mm;fill:none"
     d="M-6.836481,-278.701324C-6.872111,-278.785522,-6.897159,-278.883148,-6.908095,-278.993439C-6.921853,-279.106567,-6.93032,-279.244354,-6.93032,-279.406799C-6.93032,-279.561157,-6.921853,-279.695068,-6.908095,-279.809235C-6.897159,-279.926575,-6.871053,-280.025604,-6.830836,-280.107025C-6.798028,-280.187012,-6.748286,-280.24762,-6.681964,-280.288849C-6.618816,-280.328674,-6.540147,-280.349457,-6.44525,-280.349457C-6.345767,-280.349457,-6.264627,-280.328674,-6.202539,-280.288849C-6.139039,-280.24762,-6.088239,-280.187012,-6.048375,-280.107025C-6.015214,-280.029846,-5.990167,-279.927643,-5.976408,-279.803589C-5.965472,-279.682373,-5.960181,-279.547394,-5.960181,-279.40152C-5.960181,-279.238708,-5.965472,-279.103729,-5.976408,-278.993439C-5.987697,-278.885986,-6.010981,-278.790833,-6.048375,-278.70697C-6.081183,-278.625549,-6.128103,-278.563538,-6.191603,-278.51947C-6.257573,-278.478241,-6.341886,-278.458862,-6.44525,-278.458862C-6.540147,-278.458862,-6.618816,-278.478241,-6.681964,-278.51947C-6.748286,-278.559296,-6.799087,-278.619904,-6.836481,-278.701324z"
     id="path23" />
  <path
     transform="matrix(-1,0,0,1,-694.683044,301.407593)"
     style="stroke:#0000ff;stroke-width:0.050000mm;fill:none"
     d="M-32.709202,-290.687683C-32.760002,-290.64325,-32.80022,-290.58548,-32.830204,-290.516754C-32.863365,-290.4505,-32.879948,-290.363831,-32.879948,-290.257385C-32.879948,-290.149933,-32.860546,-290.053711,-32.824913,-289.965271C-32.787521,-289.879974,-32.733898,-289.805634,-32.665108,-289.73938C-32.587849,-289.665039,-32.495419,-289.610046,-32.389233,-289.574097C-32.28199,-289.540985,-32.166279,-289.524414,-32.042103,-289.524414C-31.91263,-289.524414,-31.785982,-289.540985,-31.661806,-289.574097C-31.540449,-289.602997,-31.438496,-289.636139,-31.358768,-289.673126L-31.358768,-289.998383L-31.380642,-289.998383C-31.468838,-289.939209,-31.570787,-289.889496,-31.689323,-289.849701C-31.810677,-289.812317,-31.92639,-289.794708,-32.036453,-289.794708C-32.102779,-289.794708,-32.17157,-289.805634,-32.246006,-289.827484C-32.319031,-289.849701,-32.378296,-289.879974,-32.422394,-289.921204C-32.469315,-289.968079,-32.505299,-290.017761,-32.527172,-290.070282C-32.551865,-290.125244,-32.56562,-290.194336,-32.56562,-290.279602C-32.56562,-290.363831,-32.551865,-290.431122,-32.527172,-290.483643C-32.501064,-290.538605,-32.463669,-290.582642,-32.417103,-290.615784C-32.368771,-290.644684,-32.312328,-290.665466,-32.246006,-290.676392C-32.180038,-290.690125,-32.108421,-290.698608,-32.031162,-290.698608L-31.893227,-290.698608L-31.893227,-290.957611L-32.003647,-290.957611C-32.160633,-290.957611,-32.286221,-290.987915,-32.378296,-291.051361C-32.473549,-291.117584,-32.521877,-291.213806,-32.521877,-291.343475C-32.521877,-291.398438,-32.507767,-291.445313,-32.483074,-291.486908C-32.461201,-291.530945,-32.42804,-291.565491,-32.383942,-291.591583C-32.339844,-291.616241,-32.291515,-291.63562,-32.240715,-291.646545C-32.188148,-291.657837,-32.131706,-291.663086,-32.069614,-291.663086C-31.970486,-291.663086,-31.865713,-291.643707,-31.755644,-291.608124C-31.645226,-291.575012,-31.540449,-291.52533,-31.44132,-291.459076L-31.42474,-291.459076L-31.42474,-291.784332C-31.497765,-291.820282,-31.595482,-291.853394,-31.716839,-291.883728C-31.841019,-291.91684,-31.96096,-291.93338,-32.07526,-291.93338C-32.188148,-291.93338,-32.287281,-291.922119,-32.373005,-291.900269C-32.461201,-291.878082,-32.539516,-291.84494,-32.610073,-291.800873C-32.683098,-291.748718,-32.738132,-291.68811,-32.775173,-291.619049C-32.815388,-291.54895,-32.83585,-291.467529,-32.83585,-291.376617C-32.83585,-291.246918,-32.788929,-291.135223,-32.698269,-291.040405C-32.605839,-290.943878,-32.499653,-290.88327,-32.378296,-290.858246L-32.378296,-290.836395C-32.425217,-290.827911,-32.480251,-290.810303,-32.543751,-290.781067C-32.610073,-290.755005,-32.665108,-290.723267,-32.709202,-290.687683z"
     id="path24" />
  <path
     transform="matrix(-1,0,0,1,-694.683044,301.407593)"
     style="stroke:#0000ff;stroke-width:0.050000mm;fill:none"
     d="M-34.933113,-290.73172C-34.933113,-290.315552,-34.867146,-290.010712,-34.734852,-289.816559C-34.605385,-289.620972,-34.405357,-289.524414,-34.134075,-289.524414C-33.854317,-289.524414,-33.650414,-289.620972,-33.522003,-289.816559C-33.396767,-290.014954,-33.334679,-290.318359,-33.334679,-290.726074C-33.334679,-291.136627,-33.398178,-291.440033,-33.527649,-291.63562C-33.655704,-291.829773,-33.858551,-291.927734,-34.134075,-291.927734C-34.409592,-291.927734,-34.610676,-291.828369,-34.740498,-291.629974C-34.868553,-291.43158,-34.933113,-291.131348,-34.933113,-290.73172z"
     id="path25" />
  <path
     transform="matrix(-1,0,0,1,-694.683044,301.407593)"
     style="stroke:#0000ff;stroke-width:0.050000mm;fill:none"
     d="M-34.525303,-290.026215C-34.561287,-290.110107,-34.585979,-290.208069,-34.596916,-290.318359C-34.610676,-290.431122,-34.619144,-290.568909,-34.619144,-290.73172C-34.619144,-290.886078,-34.610676,-291.019653,-34.596916,-291.134155C-34.585979,-291.25116,-34.559875,-291.350189,-34.520012,-291.43158C-34.486851,-291.511566,-34.437107,-291.572205,-34.37114,-291.613434C-34.30764,-291.653595,-34.22897,-291.674042,-34.134075,-291.674042C-34.034943,-291.674042,-33.953449,-291.653595,-33.891361,-291.613434C-33.828213,-291.572205,-33.777061,-291.511566,-33.737198,-291.43158C-33.704037,-291.354401,-33.679344,-291.252563,-33.665585,-291.12854C-33.654297,-291.007294,-33.649006,-290.872314,-33.649006,-290.726074C-33.649006,-290.563629,-33.654297,-290.428314,-33.665585,-290.318359C-33.676517,-290.210876,-33.699802,-290.115723,-33.737198,-290.031525C-33.770359,-289.950104,-33.816925,-289.888092,-33.880424,-289.844055C-33.946747,-289.802826,-34.030708,-289.783447,-34.134075,-289.783447C-34.22897,-289.783447,-34.30764,-289.802826,-34.37114,-289.844055C-34.437107,-289.884216,-34.488262,-289.944824,-34.525303,-290.026215z"
     id="path26" />
  <path
     transform="matrix(-1,0,0,1,-694.683044,301.407593)"
     style="stroke:#0000ff;stroke-width:0.050000mm;fill:none"
     d="M-36.954884,-290.73172C-36.954884,-290.315552,-36.888561,-290.010712,-36.756271,-289.816559C-36.626801,-289.620972,-36.427128,-289.524414,-36.155487,-289.524414C-35.875736,-289.524414,-35.671829,-289.620972,-35.54377,-289.816559C-35.418186,-290.014954,-35.356445,-290.318359,-35.356445,-290.726074C-35.356445,-291.136627,-35.419594,-291.440033,-35.549416,-291.63562C-35.677475,-291.829773,-35.879971,-291.927734,-36.155487,-291.927734C-36.431358,-291.927734,-36.632442,-291.828369,-36.761913,-291.629974C-36.889973,-291.43158,-36.954884,-291.131348,-36.954884,-290.73172z"
     id="path27" />
  <path
     transform="matrix(-1,0,0,1,-694.683044,301.407593)"
     style="stroke:#0000ff;stroke-width:0.050000mm;fill:none"
     d="M-36.547073,-290.026215C-36.582703,-290.110107,-36.60775,-290.208069,-36.618687,-290.318359C-36.632442,-290.431122,-36.640556,-290.568909,-36.640556,-290.73172C-36.640556,-290.886078,-36.632442,-291.019653,-36.618687,-291.134155C-36.60775,-291.25116,-36.581291,-291.350189,-36.541428,-291.43158C-36.508266,-291.511566,-36.458878,-291.572205,-36.392555,-291.613434C-36.329056,-291.653595,-36.25074,-291.674042,-36.155487,-291.674042C-36.056358,-291.674042,-35.97522,-291.653595,-35.913132,-291.613434C-35.849632,-291.572205,-35.798828,-291.511566,-35.758614,-291.43158C-35.725803,-291.354401,-35.700756,-291.252563,-35.687,-291.12854C-35.676064,-291.007294,-35.670418,-290.872314,-35.670418,-290.726074C-35.670418,-290.563629,-35.676064,-290.428314,-35.687,-290.318359C-35.697937,-290.210876,-35.721573,-290.115723,-35.758614,-290.031525C-35.791775,-289.950104,-35.838692,-289.888092,-35.902195,-289.844055C-35.968163,-289.802826,-36.052124,-289.783447,-36.155487,-289.783447C-36.25074,-289.783447,-36.329056,-289.802826,-36.392555,-289.844055C-36.458878,-289.884216,-36.509678,-289.944824,-36.547073,-290.026215z"
     id="path28" />
  <path
     transform="matrix(-1,0,0,1,-694.683044,301.407593)"
     style="stroke:#0000ff;stroke-width:0.050000mm;fill:none"
     d="M-49.510242,-289.574097L-47.944618,-289.574097L-47.944618,-289.899353L-48.269878,-290.174957C-48.380299,-290.270081,-48.482246,-290.363831,-48.57856,-290.456146C-48.777176,-290.646088,-48.91193,-290.799011,-48.986366,-290.913544C-49.059391,-291.026672,-49.096786,-291.147919,-49.096786,-291.277222C-49.096786,-291.398438,-49.055511,-291.492188,-48.975433,-291.558441C-48.898174,-291.627167,-48.788109,-291.663086,-48.644882,-291.663086C-48.552452,-291.663086,-48.451908,-291.646545,-48.341496,-291.613434C-48.231422,-291.580658,-48.123829,-291.528137,-48.021873,-291.459076L-48.005295,-291.459076L-48.005295,-291.784332C-48.07832,-291.820282,-48.176037,-291.853394,-48.297398,-291.883728C-48.42157,-291.91684,-48.541519,-291.93338,-48.655815,-291.93338C-48.89006,-291.93338,-49.075977,-291.87384,-49.212502,-291.756836C-49.347614,-291.64267,-49.416409,-291.488312,-49.416409,-291.293793C-49.416409,-291.205688,-49.402649,-291.122894,-49.377953,-291.045715C-49.355728,-290.971344,-49.323975,-290.899811,-49.284115,-290.83075C-49.24284,-290.767303,-49.195919,-290.705292,-49.140884,-290.64325C-49.085854,-290.5802,-49.019531,-290.512543,-48.942268,-290.439606C-48.832203,-290.329285,-48.717907,-290.221802,-48.600784,-290.119598L-48.269878,-289.838745L-49.510242,-289.838745L-49.510242,-289.574097z"
     id="path29" />
  <path
     transform="matrix(-1,0,0,1,-694.683044,301.407593)"
     style="stroke:#0000ff;stroke-width:0.050000mm;fill:none"
     d="M-51.515079,-290.307098C-51.515079,-290.199615,-51.494617,-290.097748,-51.454403,-289.998383C-51.417362,-289.899353,-51.363743,-289.816559,-51.294594,-289.750305C-51.220158,-289.675934,-51.131962,-289.619568,-51.03001,-289.579742C-50.926643,-289.543793,-50.807056,-289.524414,-50.67194,-289.524414C-50.542473,-289.524414,-50.419704,-289.539551,-50.302582,-289.568451C-50.188286,-289.593475,-50.090214,-289.625183,-50.010483,-289.662201L-50.010483,-289.987457L-50.032356,-289.987457C-50.116314,-289.932495,-50.215797,-289.88562,-50.330101,-289.849701C-50.442993,-289.812317,-50.556232,-289.794708,-50.666298,-289.794708C-50.739323,-289.794708,-50.809525,-289.802826,-50.875847,-289.822205C-50.944641,-289.844055,-51.008137,-289.879974,-51.063171,-289.932495C-51.107269,-289.976532,-51.14043,-290.028717,-51.1623,-290.092133C-51.187351,-290.154144,-51.201107,-290.226044,-51.201107,-290.307098C-51.201107,-290.387085,-51.185936,-290.456146,-51.157009,-290.511108C-51.130905,-290.566101,-51.09351,-290.610504,-51.046593,-290.64325C-50.991558,-290.67923,-50.925236,-290.705292,-50.848328,-290.720459C-50.771072,-290.738403,-50.684288,-290.748291,-50.589035,-290.748291C-50.496967,-290.748291,-50.408772,-290.739838,-50.324451,-290.726074L-50.109615,-290.692963L-50.109615,-291.883728L-51.498497,-291.883728L-51.498497,-291.613434L-50.407356,-291.613434L-50.407356,-290.996033L-50.544941,-291.001648L-50.666298,-291.007294C-50.790478,-291.007294,-50.899132,-290.996033,-50.991558,-290.974152C-51.086456,-290.954773,-51.174648,-290.919189,-51.256142,-290.863892C-51.336224,-290.808899,-51.399372,-290.734528,-51.44347,-290.64325C-51.490387,-290.555176,-51.515079,-290.442047,-51.515079,-290.307098z"
     id="path30" />
  <path
     transform="matrix(-1,0,0,1,-694.683044,301.407593)"
     style="stroke:#0000ff;stroke-width:0.050000mm;fill:none"
     d="M-53.552017,-290.73172C-53.552017,-290.315552,-53.485699,-290.010712,-53.353409,-289.816559C-53.223938,-289.620972,-53.024261,-289.524414,-52.752628,-289.524414C-52.472874,-289.524414,-52.268967,-289.620972,-52.140907,-289.816559C-52.015324,-290.014954,-51.953587,-290.318359,-51.953587,-290.726074C-51.953587,-291.136627,-52.016731,-291.440033,-52.146198,-291.63562C-52.274609,-291.829773,-52.477104,-291.927734,-52.752628,-291.927734C-53.028141,-291.927734,-53.22958,-291.828369,-53.359051,-291.629974C-53.48711,-291.43158,-53.552017,-291.131348,-53.552017,-290.73172z"
     id="path31" />
  <path
     transform="matrix(-1,0,0,1,-694.683044,301.407593)"
     style="stroke:#0000ff;stroke-width:0.050000mm;fill:none"
     d="M-53.144211,-290.026215C-53.17984,-290.110107,-53.204533,-290.208069,-53.215824,-290.318359C-53.22958,-290.431122,-53.237698,-290.568909,-53.237698,-290.73172C-53.237698,-290.886078,-53.22958,-291.019653,-53.215824,-291.134155C-53.204533,-291.25116,-53.178429,-291.350189,-53.138565,-291.43158C-53.105404,-291.511566,-53.056015,-291.572205,-52.989693,-291.613434C-52.926189,-291.653595,-52.847874,-291.674042,-52.752628,-291.674042C-52.653492,-291.674042,-52.572002,-291.653595,-52.510269,-291.613434C-52.446766,-291.572205,-52.395611,-291.511566,-52.355751,-291.43158C-52.322586,-291.354401,-52.297894,-291.252563,-52.284138,-291.12854C-52.273197,-291.007294,-52.267555,-290.872314,-52.267555,-290.726074C-52.267555,-290.563629,-52.273197,-290.428314,-52.284138,-290.318359C-52.295074,-290.210876,-52.318707,-290.115723,-52.355751,-290.031525C-52.388912,-289.950104,-52.435829,-289.888092,-52.498978,-289.844055C-52.5653,-289.802826,-52.649261,-289.783447,-52.752628,-289.783447C-52.847874,-289.783447,-52.926189,-289.802826,-52.989693,-289.844055C-53.056015,-289.884216,-53.106815,-289.944824,-53.144211,-290.026215z"
     id="path32" />
  <path
     transform="matrix(-1,0,0,1,-694.683044,301.407593)"
     style="stroke:#0000ff;stroke-width:0.050000mm;fill:none"
     d="M-81.874786,-289.574097L-80.623482,-289.574097L-80.623482,-289.810913L-81.108551,-289.810913L-81.108551,-291.354401L-80.623482,-291.354401L-80.623482,-291.569366C-80.689804,-291.569366,-80.758591,-291.575012,-80.833031,-291.585938C-80.910294,-291.596832,-80.966728,-291.610962,-81.003777,-291.629974C-81.050697,-291.654999,-81.087738,-291.68811,-81.114189,-291.72934C-81.14312,-291.769165,-81.159706,-291.82309,-81.163589,-291.888977L-81.406296,-291.888977L-81.406296,-289.810913L-81.874786,-289.810913L-81.874786,-289.574097z"
     id="path33" />
  <path
     transform="matrix(-1,0,0,1,-694.683044,301.407593)"
     style="stroke:#0000ff;stroke-width:0.050000mm;fill:none"
     d="M-84.010857,-290.307098C-84.010857,-290.199615,-83.990036,-290.097748,-83.950172,-289.998383C-83.912781,-289.899353,-83.859161,-289.816559,-83.790367,-289.750305C-83.715927,-289.675934,-83.627731,-289.619568,-83.525787,-289.579742C-83.422424,-289.543793,-83.302475,-289.524414,-83.167358,-289.524414C-83.037888,-289.524414,-82.915123,-289.539551,-82.798004,-289.568451C-82.683701,-289.593475,-82.585983,-289.625183,-82.505905,-289.662201L-82.505905,-289.987457L-82.52813,-289.987457C-82.612091,-289.932495,-82.71122,-289.88562,-82.825523,-289.849701C-82.938766,-289.812317,-83.051651,-289.794708,-83.161713,-289.794708C-83.234741,-289.794708,-83.305298,-289.802826,-83.371269,-289.822205C-83.440056,-289.844055,-83.503563,-289.879974,-83.558586,-289.932495C-83.602684,-289.976532,-83.635849,-290.028717,-83.658081,-290.092133C-83.68277,-290.154144,-83.696526,-290.226044,-83.696526,-290.307098C-83.696526,-290.387085,-83.681358,-290.456146,-83.652428,-290.511108C-83.62632,-290.566101,-83.588936,-290.610504,-83.542007,-290.64325C-83.486977,-290.67923,-83.421005,-290.705292,-83.34375,-290.720459C-83.266495,-290.738403,-83.17971,-290.748291,-83.084816,-290.748291C-82.992386,-290.748291,-82.90419,-290.739838,-82.820229,-290.726074L-82.605034,-290.692963L-82.605034,-291.883728L-83.99427,-291.883728L-83.99427,-291.613434L-82.902779,-291.613434L-82.902779,-290.996033L-83.040718,-291.001648L-83.161713,-291.007294C-83.285896,-291.007294,-83.394905,-290.996033,-83.486977,-290.974152C-83.58223,-290.954773,-83.670418,-290.919189,-83.751564,-290.863892C-83.831642,-290.808899,-83.894791,-290.734528,-83.93924,-290.64325C-83.985809,-290.555176,-84.010857,-290.442047,-84.010857,-290.307098z"
     id="path34" />
  <path
     transform="matrix(-1,0,0,1,-694.683044,301.407593)"
     style="stroke:#0000ff;stroke-width:0.050000mm;fill:none"
     d="M-86.048851,-290.73172C-86.048851,-290.315552,-85.982529,-290.010712,-85.850235,-289.816559C-85.720772,-289.620972,-85.521095,-289.524414,-85.249451,-289.524414C-84.969704,-289.524414,-84.7658,-289.620972,-84.637741,-289.816559C-84.512146,-290.014954,-84.450409,-290.318359,-84.450409,-290.726074C-84.450409,-291.136627,-84.513557,-291.440033,-84.643387,-291.63562C-84.771439,-291.829773,-84.973938,-291.927734,-85.249451,-291.927734C-85.52533,-291.927734,-85.72641,-291.828369,-85.855881,-291.629974C-85.98394,-291.43158,-86.048851,-291.131348,-86.048851,-290.73172z"
     id="path35" />
  <path
     transform="matrix(-1,0,0,1,-694.683044,301.407593)"
     style="stroke:#0000ff;stroke-width:0.050000mm;fill:none"
     d="M-85.641037,-290.026215C-85.676674,-290.110107,-85.701721,-290.208069,-85.712654,-290.318359C-85.72641,-290.431122,-85.73452,-290.568909,-85.73452,-290.73172C-85.73452,-290.886078,-85.72641,-291.019653,-85.712654,-291.134155C-85.701721,-291.25116,-85.675255,-291.350189,-85.635399,-291.43158C-85.602234,-291.511566,-85.552841,-291.572205,-85.486526,-291.613434C-85.423378,-291.653595,-85.344704,-291.674042,-85.249451,-291.674042C-85.15033,-291.674042,-85.069191,-291.653595,-85.007095,-291.613434C-84.943596,-291.572205,-84.892799,-291.511566,-84.852577,-291.43158C-84.819771,-291.354401,-84.794731,-291.252563,-84.780968,-291.12854C-84.770027,-291.007294,-84.764381,-290.872314,-84.764381,-290.726074C-84.764381,-290.563629,-84.770027,-290.428314,-84.780968,-290.318359C-84.791901,-290.210876,-84.815536,-290.115723,-84.852577,-290.031525C-84.885742,-289.950104,-84.932663,-289.888092,-84.996162,-289.844055C-85.062134,-289.802826,-85.146088,-289.783447,-85.249451,-289.783447C-85.344704,-289.783447,-85.423378,-289.802826,-85.486526,-289.844055C-85.552841,-289.884216,-85.603645,-289.944824,-85.641037,-290.026215z"
     id="path36" />
  <path
     transform="matrix(-1,0,0,1,-695.710449,301.407593)"
     style="stroke:#0000ff;stroke-width:0.050000mm;fill:none"
     d="M-66.632317,-289.574097L-65.066681,-289.574097L-65.066681,-289.899353L-65.391953,-290.174957C-65.502365,-290.270081,-65.604317,-290.363831,-65.70063,-290.456146C-65.899239,-290.646088,-66.034355,-290.799011,-66.108795,-290.913544C-66.181816,-291.026672,-66.218857,-291.147919,-66.218857,-291.277222C-66.218857,-291.398438,-66.177582,-291.492188,-66.097504,-291.558441C-66.020599,-291.627167,-65.910179,-291.663086,-65.766945,-291.663086C-65.674522,-291.663086,-65.573982,-291.646545,-65.463562,-291.613434C-65.353493,-291.580658,-65.245903,-291.528137,-65.143944,-291.459076L-65.127365,-291.459076L-65.127365,-291.784332C-65.200394,-291.820282,-65.298462,-291.853394,-65.419464,-291.883728C-65.54364,-291.91684,-65.663582,-291.93338,-65.777885,-291.93338C-66.012131,-291.93338,-66.198044,-291.87384,-66.334572,-291.756836C-66.469681,-291.64267,-66.538475,-291.488312,-66.538475,-291.293793C-66.538475,-291.205688,-66.524719,-291.122894,-66.500023,-291.045715C-66.477798,-290.971344,-66.446404,-290.899811,-66.406189,-290.83075C-66.364906,-290.767303,-66.317993,-290.705292,-66.262955,-290.64325C-66.207924,-290.5802,-66.141602,-290.512543,-66.064697,-290.439606C-65.954277,-290.329285,-65.839973,-290.221802,-65.722855,-290.119598L-65.391953,-289.838745L-66.632317,-289.838745L-66.632317,-289.574097z"
     id="path37" />
  <path
     transform="matrix(-1,0,0,1,-695.710449,301.407593)"
     style="stroke:#0000ff;stroke-width:0.050000mm;fill:none"
     d="M-68.652321,-290.73172C-68.652321,-290.315552,-68.586349,-290.010712,-68.454056,-289.816559C-68.324585,-289.620972,-68.124565,-289.524414,-67.853279,-289.524414C-67.573524,-289.524414,-67.369621,-289.620972,-67.241203,-289.816559C-67.115974,-290.014954,-67.053886,-290.318359,-67.053886,-290.726074C-67.053886,-291.136627,-67.117386,-291.440033,-67.246857,-291.63562C-67.374908,-291.829773,-67.577759,-291.927734,-67.853279,-291.927734C-68.128799,-291.927734,-68.32988,-291.828369,-68.459702,-291.629974C-68.587761,-291.43158,-68.652321,-291.131348,-68.652321,-290.73172z"
     id="path38" />
  <path
     transform="matrix(-1,0,0,1,-695.710449,301.407593)"
     style="stroke:#0000ff;stroke-width:0.050000mm;fill:none"
     d="M-68.244507,-290.026215C-68.280487,-290.110107,-68.305183,-290.208069,-68.316116,-290.318359C-68.32988,-290.431122,-68.338348,-290.568909,-68.338348,-290.73172C-68.338348,-290.886078,-68.32988,-291.019653,-68.316116,-291.134155C-68.305183,-291.25116,-68.279083,-291.350189,-68.23922,-291.43158C-68.206055,-291.511566,-68.156319,-291.572205,-68.09034,-291.613434C-68.026848,-291.653595,-67.948174,-291.674042,-67.853279,-291.674042C-67.75415,-291.674042,-67.672653,-291.653595,-67.610565,-291.613434C-67.547424,-291.572205,-67.496269,-291.511566,-67.456398,-291.43158C-67.423241,-291.354401,-67.398544,-291.252563,-67.384789,-291.12854C-67.373497,-291.007294,-67.36821,-290.872314,-67.36821,-290.726074C-67.36821,-290.563629,-67.373497,-290.428314,-67.384789,-290.318359C-67.395721,-290.210876,-67.419006,-290.115723,-67.456398,-290.031525C-67.489563,-289.950104,-67.536125,-289.888092,-67.599632,-289.844055C-67.665955,-289.802826,-67.749916,-289.783447,-67.853279,-289.783447C-67.948174,-289.783447,-68.026848,-289.802826,-68.09034,-289.844055C-68.156319,-289.884216,-68.207466,-289.944824,-68.244507,-290.026215z"
     id="path39" />
  <path
     transform="matrix(-1,0,0,1,-695.710449,301.407593)"
     style="stroke:#0000ff;stroke-width:0.050000mm;fill:none"
     d="M-70.674088,-290.73172C-70.674088,-290.315552,-70.607765,-290.010712,-70.475471,-289.816559C-70.346008,-289.620972,-70.146332,-289.524414,-69.874695,-289.524414C-69.59494,-289.524414,-69.391037,-289.620972,-69.262978,-289.816559C-69.13739,-290.014954,-69.075653,-290.318359,-69.075653,-290.726074C-69.075653,-291.136627,-69.138802,-291.440033,-69.268623,-291.63562C-69.396683,-291.829773,-69.599174,-291.927734,-69.874695,-291.927734C-70.150566,-291.927734,-70.351646,-291.828369,-70.481117,-291.629974C-70.609177,-291.43158,-70.674088,-291.131348,-70.674088,-290.73172z"
     id="path40" />
  <path
     transform="matrix(-1,0,0,1,-695.710449,301.407593)"
     style="stroke:#0000ff;stroke-width:0.050000mm;fill:none"
     d="M-70.266273,-290.026215C-70.30191,-290.110107,-70.326958,-290.208069,-70.337891,-290.318359C-70.351646,-290.431122,-70.359764,-290.568909,-70.359764,-290.73172C-70.359764,-290.886078,-70.351646,-291.019653,-70.337891,-291.134155C-70.326958,-291.25116,-70.300491,-291.350189,-70.260635,-291.43158C-70.227478,-291.511566,-70.178078,-291.572205,-70.111763,-291.613434C-70.048264,-291.653595,-69.96994,-291.674042,-69.874695,-291.674042C-69.775566,-291.674042,-69.694427,-291.653595,-69.632332,-291.613434C-69.56884,-291.572205,-69.518036,-291.511566,-69.477821,-291.43158C-69.445015,-291.354401,-69.419968,-291.252563,-69.406204,-291.12854C-69.395271,-291.007294,-69.389626,-290.872314,-69.389626,-290.726074C-69.389626,-290.563629,-69.395271,-290.428314,-69.406204,-290.318359C-69.417137,-290.210876,-69.440773,-290.115723,-69.477821,-290.031525C-69.510979,-289.950104,-69.557899,-289.888092,-69.621399,-289.844055C-69.68737,-289.802826,-69.771332,-289.783447,-69.874695,-289.783447C-69.96994,-289.783447,-70.048264,-289.802826,-70.111763,-289.844055C-70.178078,-289.884216,-70.228882,-289.944824,-70.266273,-290.026215z"
     id="path41" />
  <path
     transform="matrix(-1,0,0,1,-694.683044,301.407593)"
     style="stroke:#0000ff;stroke-width:0.050000mm;fill:none"
     d="M-3.515431,-261.730652L-2.264128,-261.730652L-2.264128,-261.967834L-2.749197,-261.967834L-2.749197,-263.511322L-2.264128,-263.511322L-2.264128,-263.726288C-2.330097,-263.726288,-2.399242,-263.731567,-2.473678,-263.742828C-2.550583,-263.753784,-2.60738,-263.767517,-2.644422,-263.786896C-2.691342,-263.811554,-2.728383,-263.844696,-2.754842,-263.885925C-2.783769,-263.926086,-2.80035,-263.979645,-2.80423,-264.045898L-3.046942,-264.045898L-3.046942,-261.967834L-3.515431,-261.967834L-3.515431,-261.730652z"
     id="path42" />
  <path
     transform="matrix(-1,0,0,1,-694.683044,301.407593)"
     style="stroke:#0000ff;stroke-width:0.050000mm;fill:none"
     d="M-5.669139,-261.730652L-4.103864,-261.730652L-4.103864,-262.055939L-4.429125,-262.331512C-4.539192,-262.426666,-4.641144,-262.520386,-4.737806,-262.612732C-4.936067,-262.803009,-5.07118,-262.955963,-5.145617,-263.070129C-5.218642,-263.183258,-5.255683,-263.304474,-5.255683,-263.434143C-5.255683,-263.555359,-5.214408,-263.649109,-5.134681,-263.714996C-5.057422,-263.784058,-4.947003,-263.820038,-4.803775,-263.820038C-4.711347,-263.820038,-4.610806,-263.803436,-4.500739,-263.770325C-4.390319,-263.737213,-4.283075,-263.684692,-4.181122,-263.615997L-4.164542,-263.615997L-4.164542,-263.941254C-4.237567,-263.976837,-4.335286,-264.009949,-4.456642,-264.040253C-4.580467,-264.073395,-4.700411,-264.089966,-4.814711,-264.089966C-5.048955,-264.089966,-5.235222,-264.030762,-5.371747,-263.913757C-5.506508,-263.799225,-5.575653,-263.644897,-5.575653,-263.450714C-5.575653,-263.362274,-5.561894,-263.279785,-5.536847,-263.202637C-5.514975,-263.128265,-5.483225,-263.056396,-5.443361,-262.987671C-5.401733,-262.924255,-5.355167,-262.862213,-5.29978,-262.800201C-5.244747,-262.736755,-5.178778,-262.669098,-5.10152,-262.596161C-4.9911,-262.48584,-4.8768,-262.378357,-4.759678,-262.27655L-4.429125,-261.9953L-5.669139,-261.9953L-5.669139,-261.730652z"
     id="path43" />
  <path
     transform="matrix(-1,0,0,1,-694.683044,301.407593)"
     style="stroke:#0000ff;stroke-width:0.050000mm;fill:none"
     d="M-6.26745,-262.171875L-6.6421,-262.171875L-6.6421,-261.731018L-6.26745,-261.731018L-6.26745,-262.171875z"
     id="path44" />
  <path
     transform="matrix(-1,0,0,1,-694.683044,301.407593)"
     style="stroke:#0000ff;stroke-width:0.050000mm;fill:none"
     d="M-8.82897,-262.463989C-8.82897,-262.356537,-8.808508,-262.254333,-8.768291,-262.155304C-8.73125,-262.055939,-8.677628,-261.97348,-8.608483,-261.907227C-8.534047,-261.832855,-8.445853,-261.776123,-8.3439,-261.736298C-8.240536,-261.700378,-8.120945,-261.681335,-7.98583,-261.681335C-7.856361,-261.681335,-7.733595,-261.696503,-7.616472,-261.725403C-7.502172,-261.750031,-7.4041,-261.781769,-7.324372,-261.819122L-7.324372,-262.144379L-7.346244,-262.144379C-7.430206,-262.08905,-7.529689,-262.042175,-7.643989,-262.006256C-7.756878,-261.969238,-7.87012,-261.951294,-7.980186,-261.951294C-8.053211,-261.951294,-8.123414,-261.959717,-8.189736,-261.97876C-8.258528,-262.000946,-8.322028,-262.036896,-8.377061,-262.08905C-8.421159,-262.133087,-8.45432,-262.185608,-8.476192,-262.249054C-8.501239,-262.311066,-8.514997,-262.382599,-8.514997,-262.463989C-8.514997,-262.544006,-8.499827,-262.612732,-8.4709,-262.66803C-8.444795,-262.723022,-8.4074,-262.767059,-8.36048,-262.800201C-8.305447,-262.836121,-8.239125,-262.862213,-8.162219,-262.87738C-8.084961,-262.895355,-7.998178,-262.904846,-7.902928,-262.904846C-7.810853,-262.904846,-7.722659,-262.896759,-7.638345,-262.882996L-7.423502,-262.849884L-7.423502,-264.040253L-8.812388,-264.040253L-8.812388,-263.770325L-7.721247,-263.770325L-7.721247,-263.152924L-7.858831,-263.158569L-7.980186,-263.163879C-8.104363,-263.163879,-8.213019,-263.152924,-8.305447,-263.130737C-8.400345,-263.111725,-8.488539,-263.075775,-8.57003,-263.020782C-8.650111,-262.965485,-8.713258,-262.891113,-8.757356,-262.800201C-8.804276,-262.712097,-8.82897,-262.598969,-8.82897,-262.463989z"
     id="path45" />
  <path
     transform="matrix(-1,0,0,1,-694.683044,301.407593)"
     style="stroke:#0000ff;stroke-width:0.050000mm;fill:none"
     d="M-5.087761,-245.259018L-3.836458,-245.259018L-3.836458,-245.49617L-4.321528,-245.49617L-4.321528,-247.039688L-3.836458,-247.039688L-3.836458,-247.254639C-3.902428,-247.254639,-3.971572,-247.259933,-4.046008,-247.271194C-4.123267,-247.282135,-4.179711,-247.295868,-4.216753,-247.315247C-4.263672,-247.33992,-4.300714,-247.373032,-4.327172,-247.414276C-4.3561,-247.454453,-4.372681,-247.508026,-4.376561,-247.574249L-4.619272,-247.574249L-4.619272,-245.49617L-5.087761,-245.49617L-5.087761,-245.259018z"
     id="path46" />
  <path
     transform="matrix(-1,0,0,1,-694.683044,301.407593)"
     style="stroke:#0000ff;stroke-width:0.050000mm;fill:none"
     d="M-7.224889,-245.992355C-7.224889,-245.884888,-7.204428,-245.782669,-7.164564,-245.68367C-7.127169,-245.584274,-7.073547,-245.501816,-7.004403,-245.435577C-6.93032,-245.361206,-6.842125,-245.304489,-6.73982,-245.264664C-6.636456,-245.228729,-6.516864,-245.209686,-6.38175,-245.209686C-6.25228,-245.209686,-6.129514,-245.224854,-6.012392,-245.253738C-5.898092,-245.278397,-5.800019,-245.31012,-5.720292,-245.347473L-5.720292,-245.672394L-5.742164,-245.672394C-5.826478,-245.617416,-5.925609,-245.570541,-6.039908,-245.534576C-6.152797,-245.497589,-6.266038,-245.47963,-6.376105,-245.47963C-6.449131,-245.47963,-6.519333,-245.487732,-6.585655,-245.507111C-6.654448,-245.529312,-6.717947,-245.564896,-6.77298,-245.617416C-6.817078,-245.661453,-6.850239,-245.713959,-6.872111,-245.777405C-6.897159,-245.839432,-6.910917,-245.910965,-6.910917,-245.992355C-6.910917,-246.071991,-6.895748,-246.141068,-6.866819,-246.196045C-6.840714,-246.251373,-6.803319,-246.29541,-6.7564,-246.328552C-6.701367,-246.364136,-6.635397,-246.390564,-6.558139,-246.405716C-6.480881,-246.423676,-6.394097,-246.433197,-6.298847,-246.433197C-6.206772,-246.433197,-6.118578,-246.425095,-6.034264,-246.411011L-5.819422,-246.37822L-5.819422,-247.568604L-7.208661,-247.568604L-7.208661,-247.298691L-6.117167,-247.298691L-6.117167,-246.68129L-6.25475,-246.68692L-6.376105,-246.692215C-6.500284,-246.692215,-6.608939,-246.68129,-6.701367,-246.659088C-6.796617,-246.640045,-6.884811,-246.604111,-6.96595,-246.548798C-7.046031,-246.49382,-7.109178,-246.419449,-7.153275,-246.328552C-7.200194,-246.240433,-7.224889,-246.127319,-7.224889,-245.992355z"
     id="path47" />
  <path
     transform="matrix(-1,0,0,1,-694.683044,301.407593)"
     style="stroke:#0000ff;stroke-width:0.050000mm;fill:none"
     d="M-3.515431,-228.747559L-2.264128,-228.747559L-2.264128,-228.98436L-2.749197,-228.98436L-2.749197,-230.527847L-2.264128,-230.527847L-2.264128,-230.742813C-2.330097,-230.742813,-2.399242,-230.748444,-2.473678,-230.759384C-2.550583,-230.770309,-2.60738,-230.784042,-2.644422,-230.803436C-2.691342,-230.828461,-2.728383,-230.861206,-2.754842,-230.902817C-2.783769,-230.942627,-2.80035,-230.996536,-2.80423,-231.062424L-3.046942,-231.062424L-3.046942,-228.98436L-3.515431,-228.98436L-3.515431,-228.747559z"
     id="path48" />
  <path
     transform="matrix(-1,0,0,1,-694.683044,301.407593)"
     style="stroke:#0000ff;stroke-width:0.050000mm;fill:none"
     d="M-5.674784,-230.709686L-4.633031,-228.747559L-4.296834,-228.747559L-5.4102,-230.786865L-4.092928,-230.786865L-4.092928,-231.057144L-5.674784,-231.057144L-5.674784,-230.709686z"
     id="path49" />
  <path
     transform="matrix(-1,0,0,1,-694.683044,301.407593)"
     style="stroke:#0000ff;stroke-width:0.050000mm;fill:none"
     d="M-6.26745,-229.1884L-6.6421,-229.1884L-6.6421,-228.747559L-6.26745,-228.747559L-6.26745,-229.1884z"
     id="path50" />
  <path
     transform="matrix(-1,0,0,1,-694.683044,301.407593)"
     style="stroke:#0000ff;stroke-width:0.050000mm;fill:none"
     d="M-8.82897,-229.48053C-8.82897,-229.373062,-8.808508,-229.27121,-8.768291,-229.171844C-8.73125,-229.072815,-8.677628,-228.990005,-8.608483,-228.923752C-8.534047,-228.84938,-8.445853,-228.793015,-8.3439,-228.752838C-8.240536,-228.717239,-8.120945,-228.697861,-7.98583,-228.697861C-7.856361,-228.697861,-7.733595,-228.713028,-7.616472,-228.741913C-7.502172,-228.766937,-7.4041,-228.798309,-7.324372,-228.835648L-7.324372,-229.160904L-7.346244,-229.160904C-7.430206,-229.105591,-7.529689,-229.059067,-7.643989,-229.023117C-7.756878,-228.985764,-7.87012,-228.967804,-7.980186,-228.967804C-8.053211,-228.967804,-8.123414,-228.976242,-8.189736,-228.995651C-8.258528,-229.017487,-8.322028,-229.053436,-8.377061,-229.105591C-8.421159,-229.149994,-8.45432,-229.202133,-8.476192,-229.265579C-8.501239,-229.327606,-8.514997,-229.399139,-8.514997,-229.48053C-8.514997,-229.560532,-8.499827,-229.629242,-8.4709,-229.684586C-8.444795,-229.739548,-8.4074,-229.7836,-8.36048,-229.816727C-8.305447,-229.852661,-8.239125,-229.878738,-8.162219,-229.89389C-8.084961,-229.911865,-7.998178,-229.921738,-7.902928,-229.921738C-7.810853,-229.921738,-7.722659,-229.913269,-7.638345,-229.899536L-7.423502,-229.866425L-7.423502,-231.057144L-8.812388,-231.057144L-8.812388,-230.786865L-7.721247,-230.786865L-7.721247,-230.169464L-7.858831,-230.175095L-7.980186,-230.18074C-8.104363,-230.18074,-8.213019,-230.169464,-8.305447,-230.147629C-8.400345,-230.12825,-8.488539,-230.092285,-8.57003,-230.037323C-8.650111,-229.982346,-8.713258,-229.907623,-8.757356,-229.816727C-8.804276,-229.728607,-8.82897,-229.615509,-8.82897,-229.48053z"
     id="path51" />
  <path
     transform="matrix(-1,0,0,1,-694.683044,301.407593)"
     style="stroke:#0000ff;stroke-width:0.050000mm;fill:none"
     d="M-5.350934,-212.194504L-3.785306,-212.194504L-3.785306,-212.51976L-4.110567,-212.795319C-4.220986,-212.890488,-4.322939,-212.984222,-4.419248,-213.076553C-4.617861,-213.266479,-4.752975,-213.419418,-4.827411,-213.533951C-4.900436,-213.647079,-4.937478,-213.768311,-4.937478,-213.897629C-4.937478,-214.018845,-4.896203,-214.112595,-4.816123,-214.178833C-4.739217,-214.24791,-4.628798,-214.283493,-4.485569,-214.283493C-4.393142,-214.283493,-4.2926,-214.266937,-4.18218,-214.233826C-4.072114,-214.20105,-3.964517,-214.148529,-3.862564,-214.079468L-3.845984,-214.079468L-3.845984,-214.404724C-3.919008,-214.440659,-4.017081,-214.473801,-4.138083,-214.504089C-4.262261,-214.537231,-4.382205,-214.553787,-4.496506,-214.553787C-4.73075,-214.553787,-4.917017,-214.494568,-5.053189,-214.377228C-5.188303,-214.263062,-5.257094,-214.108719,-5.257094,-213.9142C-5.257094,-213.826096,-5.243336,-213.743286,-5.218642,-213.666107C-5.196416,-213.591751,-5.16502,-213.520218,-5.124803,-213.451141C-5.083528,-213.387711,-5.036609,-213.325699,-4.981575,-213.263657C-4.926542,-213.200592,-4.860219,-213.132919,-4.783314,-213.059998C-4.672894,-212.949692,-4.558594,-212.842194,-4.441473,-212.740005L-4.110567,-212.459152L-5.350934,-212.459152L-5.350934,-212.194504z"
     id="path52" />
  <path
     transform="matrix(-1,0,0,1,-694.683044,301.407593)"
     style="stroke:#0000ff;stroke-width:0.050000mm;fill:none"
     d="M-7.37235,-213.352112C-7.37235,-212.935944,-7.306381,-212.63147,-7.174089,-212.436951C-7.04462,-212.241379,-6.844594,-212.144806,-6.573308,-212.144806C-6.293556,-212.144806,-6.08965,-212.241379,-5.961239,-212.436951C-5.836002,-212.635345,-5.773914,-212.938766,-5.773914,-213.346481C-5.773914,-213.757019,-5.837414,-214.060425,-5.966883,-214.256027C-6.094942,-214.45018,-6.297789,-214.548141,-6.573308,-214.548141C-6.848828,-214.548141,-7.049911,-214.449127,-7.179733,-214.250381C-7.307792,-214.051971,-7.37235,-213.751724,-7.37235,-213.352112z"
     id="path53" />
  <path
     transform="matrix(-1,0,0,1,-694.683044,301.407593)"
     style="stroke:#0000ff;stroke-width:0.050000mm;fill:none"
     d="M-6.964539,-212.646622C-7.000522,-212.730484,-7.025217,-212.828461,-7.036153,-212.938766C-7.049911,-213.051529,-7.058378,-213.189316,-7.058378,-213.352112C-7.058378,-213.506485,-7.049911,-213.640015,-7.036153,-213.754562C-7.025217,-213.871552,-6.999111,-213.970917,-6.959247,-214.051971C-6.926086,-214.131973,-6.876345,-214.192596,-6.810375,-214.233826C-6.746875,-214.273987,-6.668206,-214.294785,-6.573308,-214.294785C-6.474177,-214.294785,-6.392686,-214.273987,-6.330597,-214.233826C-6.26745,-214.192596,-6.216297,-214.131973,-6.176433,-214.051971C-6.143272,-213.974792,-6.118578,-213.872955,-6.10482,-213.748932C-6.093531,-213.627701,-6.088239,-213.492737,-6.088239,-213.346481C-6.088239,-213.184021,-6.093531,-213.048706,-6.10482,-212.938766C-6.115756,-212.831284,-6.139039,-212.73613,-6.176433,-212.651917C-6.209594,-212.570862,-6.256161,-212.50885,-6.319661,-212.464447C-6.385983,-212.423218,-6.469944,-212.403839,-6.573308,-212.403839C-6.668206,-212.403839,-6.746875,-212.423218,-6.810375,-212.464447C-6.876345,-212.504608,-6.927497,-212.565231,-6.964539,-212.646622z"
     id="path54" />
  <path
     transform="matrix(-1,0,0,1,0,0)"
     style="stroke:none;fill:#ff0000;fill-rule:evenodd"
     d="M681.920959,17.116943L672.477112,17.116943L672.477112,26.5495L681.920959,26.5495L681.920959,17.116943z"
     id="path55" />
  <path
     transform="matrix(-1,0,0,1,0,0)"
     style="stroke:none;fill:#00e000;fill-rule:evenodd"
     d="M681.920959,33.628418L672.477112,33.628418L672.477112,43.062378L681.920959,43.062378L681.920959,33.628418z"
     id="path56" />
  <path
     transform="matrix(-1,0,0,1,0,0)"
     style="stroke:none;fill:#d0d000;fill-rule:evenodd"
     d="M681.920959,50.141647L672.477112,50.141647L672.477112,59.574203L681.920959,59.574203L681.920959,50.141647z"
     id="path57" />
  <path
     transform="matrix(-1,0,0,1,0,0)"
     style="stroke:none;fill:#ff8000;fill-rule:evenodd"
     d="M681.920959,66.653107L672.477112,66.653107L672.477112,76.085663L681.920959,76.085663L681.920959,66.653107z"
     id="path58" />
  <path
     transform="matrix(-1,0,0,1,0,0)"
     style="stroke:none;fill:#00e0e0;fill-rule:evenodd"
     d="M681.920959,83.164932L672.477112,83.164932L672.477112,92.598892L681.920959,92.598892L681.920959,83.164932z"
     id="path59" />
  <path
     transform="matrix(-1,0,0,1,0,0)"
     style="stroke:none;fill:#ff00ff;fill-rule:evenodd"
     d="M665.391541,17.116943L655.947693,17.116943L655.947693,26.5495L665.391541,26.5495L665.391541,17.116943z"
     id="path60" />
  <path
     transform="matrix(-1,0,0,1,0,0)"
     style="stroke:none;fill:#b4b4b4;fill-rule:evenodd"
     d="M665.391541,33.628418L655.947693,33.628418L655.947693,43.062378L665.391541,43.062378L665.391541,33.628418z"
     id="path61" />
  <path
     transform="matrix(-1,0,0,1,0,0)"
     style="stroke:none;fill:#0000a0;fill-rule:evenodd"
     d="M665.391541,50.141647L655.947693,50.141647L655.947693,59.574203L665.391541,59.574203L665.391541,50.141647z"
     id="path62" />
  <path
     transform="matrix(-1,0,0,1,0,0)"
     style="stroke:none;fill:#a00000;fill-rule:evenodd"
     d="M665.391541,66.653107L655.947693,66.653107L655.947693,76.085663L665.391541,76.085663L665.391541,66.653107z"
     id="path63" />
  <path
     transform="matrix(-1,0,0,1,0,0)"
     style="stroke:none;fill:#00a000;fill-rule:evenodd"
     d="M665.391541,83.164932L655.947693,83.164932L655.947693,92.598892L665.391541,92.598892L665.391541,83.164932z"
     id="path64" />
  <path
     transform="matrix(-1,0,0,1,0,0)"
     style="stroke:none;fill:#a0a000;fill-rule:evenodd"
     d="M648.860352,17.116943L639.416504,17.116943L639.416504,26.5495L648.860352,26.5495L648.860352,17.116943z"
     id="path65" />
  <path
     transform="matrix(-1,0,0,1,0,0)"
     style="stroke:none;fill:#c08000;fill-rule:evenodd"
     d="M648.860352,33.628418L639.416504,33.628418L639.416504,43.062378L648.860352,43.062378L648.860352,33.628418z"
     id="path66" />
  <path
     transform="matrix(-1,0,0,1,0,0)"
     style="stroke:none;fill:#00a0ff;fill-rule:evenodd"
     d="M648.860352,50.141647L639.416504,50.141647L639.416504,59.574203L648.860352,59.574203L648.860352,50.141647z"
     id="path67" />
  <path
     transform="matrix(-1,0,0,1,0,0)"
     style="stroke:none;fill:#a000a0;fill-rule:evenodd"
     d="M648.860352,66.653107L639.416504,66.653107L639.416504,76.085663L648.860352,76.085663L648.860352,66.653107z"
     id="path68" />
  <path
     transform="matrix(-1,0,0,1,0,0)"
     style="stroke:none;fill:#808080;fill-rule:evenodd"
     d="M648.860352,83.164932L639.416504,83.164932L639.416504,92.598892L648.860352,92.598892L648.860352,83.164932z"
     id="path69" />
  <path
     transform="matrix(-1,0,0,1,0,0)"
     style="stroke:none;fill:#7d87b9;fill-rule:evenodd"
     d="M632.330994,17.116943L622.887146,17.116943L622.887146,26.5495L632.330994,26.5495L632.330994,17.116943z"
     id="path70" />
  <path
     transform="matrix(-1,0,0,1,0,0)"
     style="stroke:none;fill:#bb7784;fill-rule:evenodd"
     d="M632.330994,33.628418L622.887146,33.628418L622.887146,43.062378L632.330994,43.062378L632.330994,33.628418z"
     id="path71" />
  <path
     transform="matrix(-1,0,0,1,0,0)"
     style="stroke:none;fill:#4a6fe3;fill-rule:evenodd"
     d="M632.330994,50.141647L622.887146,50.141647L622.887146,59.574203L632.330994,59.574203L632.330994,50.141647z"
     id="path72" />
  <path
     transform="matrix(-1,0,0,1,0,0)"
     style="stroke:none;fill:#d33f6a;fill-rule:evenodd"
     d="M632.330994,66.653107L622.887146,66.653107L622.887146,76.085663L632.330994,76.085663L632.330994,66.653107z"
     id="path73" />
  <path
     transform="matrix(-1,0,0,1,0,0)"
     style="stroke:none;fill:#8cd78c;fill-rule:evenodd"
     d="M632.330994,83.164932L622.887146,83.164932L622.887146,92.598892L632.330994,92.598892L632.330994,83.164932z"
     id="path74" />
  <path
     transform="matrix(-1,0,0,1,0,0)"
     style="stroke:none;fill:#f0b98d;fill-rule:evenodd"
     d="M615.800171,17.116943L606.357727,17.116943L606.357727,26.5495L615.800171,26.5495L615.800171,17.116943z"
     id="path75" />
  <path
     transform="matrix(-1,0,0,1,0,0)"
     style="stroke:none;fill:#f6c4e1;fill-rule:evenodd"
     d="M615.800171,33.628418L606.357727,33.628418L606.357727,43.062378L615.800171,43.062378L615.800171,33.628418z"
     id="path76" />
  <path
     transform="matrix(-1,0,0,1,0,0)"
     style="stroke:none;fill:#fa9ed4;fill-rule:evenodd"
     d="M615.800171,50.141647L606.357727,50.141647L606.357727,59.574203L615.800171,59.574203L615.800171,50.141647z"
     id="path77" />
  <path
     transform="matrix(-1,0,0,1,0,0)"
     style="stroke:none;fill:#500a78;fill-rule:evenodd"
     d="M615.800171,66.653107L606.357727,66.653107L606.357727,76.085663L615.800171,76.085663L615.800171,66.653107z"
     id="path78" />
  <path
     transform="matrix(-1,0,0,1,0,0)"
     style="stroke:none;fill:#b45a00;fill-rule:evenodd"
     d="M615.800171,83.164932L606.357727,83.164932L606.357727,92.598892L615.800171,92.598892L615.800171,83.164932z"
     id="path79" />
</svg>
