<?xml version="1.0" encoding="UTF-8" standalone="no"?>
<!-- Created with Inkscape (http://www.inkscape.org/) -->

<svg
   width="8.2677164in"
   height="11.693in"
   viewBox="0 0 210 297.00219"
   version="1.1"
   id="svg1"
   sodipodi:docname="ToolBoxDesignFinal.svg"
   inkscape:version="1.4 (86a8ad7, 2024-10-11)"
   inkscape:export-filename="ToolBoxDesignFinal.pdf"
   inkscape:export-xdpi="96"
   inkscape:export-ydpi="96"
   xmlns:inkscape="http://www.inkscape.org/namespaces/inkscape"
   xmlns:sodipodi="http://sodipodi.sourceforge.net/DTD/sodipodi-0.dtd"
   xmlns="http://www.w3.org/2000/svg"
   xmlns:svg="http://www.w3.org/2000/svg">
  <sodipodi:namedview
     id="namedview1"
     pagecolor="#ffffff"
     bordercolor="#000000"
     borderopacity="0.25"
     inkscape:showpageshadow="2"
     inkscape:pageopacity="0.0"
     inkscape:pagecheckerboard="0"
     inkscape:deskcolor="#d1d1d1"
     inkscape:document-units="mm"
     inkscape:zoom="0.70710678"
     inkscape:cx="229.8097"
     inkscape:cy="559.32146"
     inkscape:window-width="1920"
     inkscape:window-height="1111"
     inkscape:window-x="-9"
     inkscape:window-y="-9"
     inkscape:window-maximized="1"
     inkscape:current-layer="layer1" />
  <defs
     id="defs1" />
  <g
     inkscape:label="Layer 1"
     inkscape:groupmode="layer"
     id="layer1">
    <path
       d="m 69.91283,5.2446639 h 6.30297 v -3.07785 h 6.49521 v 3.07785 h 6.3066 v -3.07785 h 6.49521 v 3.07785 h 6.30607 v -3.07785 h 6.49573 v 3.07785 h 6.30607 v -3.07785 h 6.49522 v 3.07785 h 6.30659 v -3.07785 h 5.88956 V 129.06646 h -5.88956 v -3.07784 h -6.30659 v 3.07784 h -6.49522 v -3.07784 h -6.30607 v 3.07784 h -6.49573 v -3.07784 h -6.30607 v 3.07784 h -6.49521 v -3.07784 h -6.3066 v 3.07784 H 76.2158 v -3.07784 h -6.30297 z"
       style="fill:none;stroke:#000000;stroke-width:0.10072"
       id="path58" />
    <rect
       style="fill:none;stroke:#000000;stroke-width:0.10072;stroke-dasharray:none"
       id="rect1-8-1-7"
       width="63.399277"
       height="126.89928"
       x="136.56302"
       y="3.0217452" />
    <path
       d="M 35.98656,121.51436 4.3016717,66.634511 h -0.0248 v -6.35207 h 3.087667 v -6.30607 h -3.087672 v -6.49521 h 3.087667 v -6.3066 h -3.087667 v -6.49521 h 3.087667 v -6.30607 h -3.087667 v -6.49573 h 3.087667 v -6.30607 H 4.2768667 V 9.0762607 h 3.087667 v -5.86114 H 64.608586 v 5.86114 h 3.087666 v 6.4952203 h -3.087666 v 6.30607 h 3.087666 v 6.49573 h -3.087666 v 6.30607 h 3.087666 v 6.49521 h -3.087666 v 6.3066 h 3.087666 v 6.49521 h -3.087666 v 6.30607 h 3.087666 v 6.35207 h -0.0248 z m 0.0041,-24.409359 a 2.9430046,2.942946 0 0 0 2.942973,-2.94297 2.9430046,2.942946 0 0 0 -2.942973,-2.94298 2.9430046,2.942946 0 0 0 -2.942973,2.94298 2.9430046,2.942946 0 0 0 2.942973,2.94297 z"
       style="fill:none;stroke:#000000;stroke-width:0.0802441"
       id="path49" />
    <path
       d="m 71.426037,133.8593 h 6.30297 v -3.07785 h 6.49521 v 3.07785 h 6.3066 v -3.07785 h 6.49521 v 3.07785 h 6.306073 v -3.07785 h 6.49573 v 3.07785 h 6.30607 v -3.07785 h 6.49522 v 3.07785 h 6.30659 v -3.07785 h 5.88956 v 126.89964 h -5.88956 v -3.07784 h -6.30659 v 3.07784 h -6.49522 v -3.07784 h -6.30607 v 3.07784 h -6.49573 v -3.07784 h -6.306073 v 3.07784 h -6.49521 v -3.07784 h -6.3066 v 3.07784 h -6.49521 v -3.07784 h -6.30297 z"
       style="fill:none;stroke:#000000;stroke-width:0.10072"
       id="path58-5" />
    <path
       d="M 37.499767,250.12899 5.8148763,195.24914 h -0.0248 v -6.35207 H 8.8777466 V 182.591 H 5.7900763 v -6.49521 h 3.0876603 v -6.3066 H 5.7900763 v -6.49521 h 3.0876603 v -6.30607 H 5.7900763 v -6.49573 h 3.0876603 v -6.30607 H 5.7900763 v -6.49522 h 3.0876603 v -5.86114 H 66.121793 v 5.86114 h 3.087666 v 6.49522 h -3.087666 v 6.30607 h 3.087666 v 6.49573 h -3.087666 v 6.30607 h 3.087666 v 6.49521 h -3.087666 v 6.3066 h 3.087666 v 6.49521 h -3.087666 v 6.30607 h 3.087666 v 6.35207 h -0.0248 z m 0.0041,-24.40936 a 2.9430046,2.942946 0 0 0 2.942973,-2.94297 2.9430046,2.942946 0 0 0 -2.942973,-2.94298 2.9430046,2.942946 0 0 0 -2.942973,2.94298 2.9430046,2.942946 0 0 0 2.942973,2.94297 z"
       style="fill:none;stroke:#000000;stroke-width:0.0802441"
       id="path49-7" />
  </g>
</svg>
