<?xml version="1.0" encoding="UTF-8" standalone="no"?>
<svg
   width="95.330mm"
   height="95.227mm"
   viewBox="-694.665039 4.386688 95.330078 95.226639"
   version="1.1"
   id="svg79"
   sodipodi:docname="StudioLaserCuttingSquare_400-100by10-50.svg"
   inkscape:version="1.4 (86a8ad7, 2024-10-11)"
   xmlns:inkscape="http://www.inkscape.org/namespaces/inkscape"
   xmlns:sodipodi="http://sodipodi.sourceforge.net/DTD/sodipodi-0.dtd"
   xmlns="http://www.w3.org/2000/svg"
   xmlns:svg="http://www.w3.org/2000/svg">
  <defs
     id="defs79" />
  <sodipodi:namedview
     id="namedview79"
     pagecolor="#ffffff"
     bordercolor="#000000"
     borderopacity="0.25"
     inkscape:showpageshadow="2"
     inkscape:pageopacity="0.0"
     inkscape:pagecheckerboard="0"
     inkscape:deskcolor="#d1d1d1"
     inkscape:document-units="mm"
     inkscape:zoom="1.6324809"
     inkscape:cx="200.92119"
     inkscape:cy="137.52075"
     inkscape:window-width="1920"
     inkscape:window-height="1111"
     inkscape:window-x="-9"
     inkscape:window-y="-9"
     inkscape:window-maximized="1"
     inkscape:current-layer="svg79" />
  <path
     style="stroke:#000000;stroke-width:0.050000mm;fill:none"
     d="M-0.017992,-297.020905L-95.348068,-297.020905L-95.348068,-201.794266L-0.017992,-201.794266L-0.017992,-297.020905z"
     id="path1"
     transform="matrix(-1,0,0,1,-694.683044,301.407593)" />
  <path
     style="fill:none;stroke:#0000ff;stroke-width:0.05mm"
     d="m -681.63732,14.553932 c 0.0924,0 0.18204,0.02185 0.27023,0.06592 0.0882,0.04157 0.16263,0.09937 0.22049,0.176544 0.0663,0.08139 0.11994,0.176178 0.15981,0.286499 0.036,0.110291 0.055,0.242432 0.055,0.39679 0,0.169494 -0.0148,0.319976 -0.0441,0.452118 -0.0328,0.132141 -0.0797,0.267456 -0.14323,0.402435 h -0.38594 v -0.02222 c 0.0995,-0.112762 0.17534,-0.248077 0.22613,-0.402405 0.0526,-0.154022 0.0773,-0.297424 0.0773,-0.429931 0,-0.189942 -0.0346,-0.33902 -0.10477,-0.446503 -0.0688,-0.106049 -0.16545,-0.159638 -0.28681,-0.159638 -0.10195,0 -0.17745,0.02609 -0.22578,0.07721 -0.0469,0.05215 -0.0854,0.126831 -0.11571,0.225861 l -0.0497,0.259002 -0.0497,0.28122 c -0.0441,0.206878 -0.11712,0.358398 -0.22049,0.457428 -0.10583,0.09937 -0.24377,0.149048 -0.4131,0.149048 -0.19438,0 -0.35278,-0.07999 -0.47413,-0.242798 -0.12418,-0.165284 -0.18733,-0.371796 -0.18733,-0.622681 0,-0.165283 0.0162,-0.314331 0.0494,-0.446503 0.0303,-0.134948 0.0663,-0.25653 0.11042,-0.364013 h 0.36371 v 0.02222 c -0.073,0.0881 -0.1337,0.20401 -0.18203,0.347107 -0.0508,0.143403 -0.0769,0.291047 -0.0769,0.441193 0,0.165253 0.0356,0.29776 0.10443,0.39679 0.0663,0.09937 0.15451,0.148712 0.26458,0.148712 0.0967,0 0.1711,-0.02325 0.22613,-0.07153 0.055,-0.05109 0.0977,-0.139191 0.12665,-0.264649 l 0.0497,-0.281219 c 0.0222,-0.123688 0.0441,-0.228699 0.0663,-0.313996 0.0441,-0.16806 0.11289,-0.29776 0.20391,-0.385864 0.0921,-0.08807 0.22048,-0.132141 0.38558,-0.132141 z"
     id="path2" />
  <path
     style="fill:none;stroke:#0000ff;stroke-width:0.05mm"
     d="m -682.59088,12.554115 c 0.10337,0 0.19862,0.01938 0.28681,0.0553 0.0882,0.03314 0.16404,0.08246 0.22578,0.148712 0.0815,0.07718 0.14217,0.170898 0.18203,0.281219 0.0413,0.107483 0.0607,0.242432 0.0607,0.407715 v 0.308716 h 0.85972 v 0.308685 h -2.31493 v -0.628326 c 0,-0.139191 0.0138,-0.256195 0.0385,-0.352753 0.0222,-0.09512 0.0593,-0.179016 0.11042,-0.253357 0.0593,-0.08844 0.13229,-0.155761 0.22048,-0.20404 0.0882,-0.04687 0.19826,-0.07187 0.33055,-0.07187 z"
     id="path3" />
  <path
     style="fill:none;stroke:#0000ff;stroke-width:0.05mm"
     d="m -682.57959,12.874061 c -0.0801,0 -0.15028,0.01517 -0.20955,0.04407 -0.0579,0.02606 -0.10618,0.06625 -0.14322,0.121215 -0.0332,0.05252 -0.0568,0.108887 -0.072,0.170929 -0.0138,0.06342 -0.0219,0.143403 -0.0219,0.242432 v 0.30307 h 0.92604 v -0.259033 c 0,-0.124023 -0.0109,-0.225861 -0.0332,-0.30304 -0.0219,-0.07718 -0.0564,-0.13919 -0.10478,-0.187469 -0.0508,-0.04687 -0.10477,-0.07999 -0.15981,-0.09903 -0.055,-0.02222 -0.11571,-0.03314 -0.18168,-0.03314 z"
     id="path4" />
  <path
     style="fill:none;stroke:#0000ff;stroke-width:0.05mm"
     d="m -680.97586,10.628944 v 1.521637 h -2.31493 v -1.521637 h 0.27552 v 1.212982 h 0.63394 v -1.212982 h 0.27552 v 1.212982 h 0.85443 v -1.212982 z"
     id="path5" />
  <path
     style="fill:none;stroke:#0000ff;stroke-width:0.05mm"
     d="m -680.97586,8.6199413 v 1.5213017 h -2.31493 V 8.6199413 h 0.27552 v 1.212586 h 0.63394 v -1.212586 h 0.27552 v 1.212586 h 0.85443 v -1.212586 z"
     id="path6" />
  <path
     style="fill:none;stroke:#0000ff;stroke-width:0.05mm"
     d="m -682.12768,6.1821063 c 0.20955,0 0.40111,0.046844 0.57327,0.137756 0.16933,0.092346 0.30021,0.213562 0.39123,0.364044 0.0663,0.107483 0.1143,0.224488 0.14322,0.352753 0.0303,0.129303 0.0441,0.300232 0.0441,0.512726 v 0.584259 h -2.31493 v -0.57898 c 0,-0.223083 0.0166,-0.402435 0.0497,-0.534576 0.0328,-0.132507 0.0797,-0.24527 0.13759,-0.341827 0.0991,-0.154358 0.23142,-0.275574 0.39687,-0.363678 0.16263,-0.08844 0.3556,-0.132477 0.57891,-0.132477 z"
     id="path7" />
  <path
     style="fill:none;stroke:#0000ff;stroke-width:0.05mm"
     d="m -682.13332,6.5020523 c -0.17921,0 -0.33197,0.031372 -0.45756,0.093384 -0.12382,0.063446 -0.22295,0.157196 -0.29739,0.281219 -0.0511,0.092346 -0.0857,0.190277 -0.10477,0.292145 -0.0222,0.103607 -0.0332,0.226227 -0.0332,0.369293 v 0.286866 h 1.78576 v -0.286866 c 0,-0.145874 -0.0109,-0.275543 -0.0328,-0.385864 -0.0222,-0.110291 -0.0621,-0.210724 -0.12136,-0.30307 -0.073,-0.117004 -0.16827,-0.20401 -0.2868,-0.259003 -0.12101,-0.05777 -0.27129,-0.088104 -0.45191,-0.088104 z"
     id="path8" />
  <path
     style="fill:none;stroke:#0000ff;stroke-width:0.05mm"
     d="m -690.92666,17.971214 c 0,0.103576 -0.019,0.198394 -0.055,0.286834 -0.037,0.08527 -0.0868,0.159638 -0.14887,0.225891 -0.0811,0.07718 -0.17639,0.136384 -0.28645,0.176545 -0.1076,0.04123 -0.24271,0.06061 -0.40781,0.06061 h -0.30868 v 0.859863 h -0.30869 v -2.309601 h 0.6283 c 0.139,0 0.25612,0.01373 0.35278,0.03839 0.0949,0.02222 0.18168,0.05817 0.25894,0.104675 0.0882,0.05957 0.15593,0.132508 0.2039,0.220581 0.0469,0.08813 0.0716,0.201233 0.0716,0.336213 z"
     id="path9" />
  <path
     style="fill:none;stroke:#0000ff;stroke-width:0.05mm"
     d="m -691.24628,17.976829 c 0,-0.07718 -0.0152,-0.144806 -0.0441,-0.204041 -0.0261,-0.06201 -0.0688,-0.111694 -0.12664,-0.148681 -0.0526,-0.0289 -0.10901,-0.05112 -0.1711,-0.06625 -0.0631,-0.01373 -0.14323,-0.02185 -0.24236,-0.02185 h -0.30303 v 0.920441 h 0.25893 c 0.12383,0 0.22613,-0.01089 0.30304,-0.03314 0.0773,-0.02219 0.13935,-0.05637 0.18768,-0.104645 0.0508,-0.04684 0.0854,-0.09937 0.10442,-0.154358 0.0222,-0.0553 0.0332,-0.11734 0.0332,-0.187469 z"
     id="path10" />
  <path
     style="fill:none;stroke:#0000ff;stroke-width:0.05mm"
     d="m -689.1476,18.715446 c 0,0.284027 -0.0744,0.50711 -0.22049,0.672394 -0.14323,0.162811 -0.3362,0.242797 -0.57856,0.242797 -0.24659,0 -0.44097,-0.07999 -0.5842,-0.242797 -0.14358,-0.165284 -0.21519,-0.388367 -0.21519,-0.672394 0,-0.282623 0.0716,-0.504273 0.21519,-0.667053 0.14323,-0.165284 0.33761,-0.248108 0.5842,-0.248108 0.24236,0 0.43533,0.08282 0.57856,0.248108 0.14605,0.16278 0.22049,0.38443 0.22049,0.667053 z"
     id="path11" />
  <path
     style="fill:none;stroke:#0000ff;stroke-width:0.05mm"
     d="m -689.445,18.715446 c 0,-0.223389 -0.0441,-0.388672 -0.13229,-0.496155 -0.0882,-0.11029 -0.21237,-0.165253 -0.36936,-0.165253 -0.15839,0 -0.28116,0.05496 -0.36935,0.165253 -0.0854,0.107483 -0.12665,0.272766 -0.12665,0.496155 0,0.217773 0.0413,0.383056 0.12665,0.496185 0.0882,0.110291 0.21096,0.165283 0.36935,0.165283 0.15699,0 0.28117,-0.05499 0.36936,-0.165283 0.0882,-0.11029 0.13229,-0.275574 0.13229,-0.496185 z"
     id="path12" />
  <path
     style="fill:none;stroke:#0000ff;stroke-width:0.05mm"
     d="m -686.51271,17.849998 -0.45191,1.730957 h -0.27022 l -0.44627,-1.334168 -0.44097,1.334168 h -0.27023 l -0.45755,-1.730957 h 0.30339 l 0.31962,1.339447 0.43532,-1.339447 h 0.23707 l 0.44662,1.339447 0.30303,-1.339447 z"
     id="path13" />
  <path
     style="fill:none;stroke:#0000ff;stroke-width:0.05mm"
     d="m -684.6384,18.742942 h -1.27882 c 0,0.107483 0.0138,0.201233 0.0441,0.28122 0.0328,0.07718 0.0769,0.141998 0.13229,0.192749 0.055,0.05252 0.11853,0.09094 0.19297,0.115966 0.073,0.02182 0.15558,0.03311 0.248,0.03311 0.11713,0 0.23425,-0.02222 0.35278,-0.06625 0.121,-0.04687 0.20673,-0.09515 0.25894,-0.143432 h 0.0109 v 0.319977 c -0.0963,0.04123 -0.19544,0.07578 -0.2974,0.104675 -0.10336,0.02466 -0.21237,0.03842 -0.32526,0.03842 -0.2868,0 -0.51152,-0.07721 -0.67274,-0.231536 -0.16263,-0.154358 -0.24236,-0.374604 -0.24236,-0.661469 0,-0.282257 0.0773,-0.50708 0.23142,-0.672333 0.15452,-0.168121 0.35842,-0.253753 0.61207,-0.253753 0.23424,0 0.41451,0.06909 0.5401,0.20404 0.12806,0.136383 0.19297,0.330902 0.19297,0.584259 z"
     id="path14" />
  <path
     style="fill:none;stroke:#0000ff;stroke-width:0.05mm"
     d="m -684.92521,18.522697 c 0,-0.154358 -0.0385,-0.271698 -0.11571,-0.353089 -0.0773,-0.08386 -0.19297,-0.126525 -0.34713,-0.126525 -0.15875,0 -0.28399,0.04687 -0.375,0.137817 -0.0924,0.09229 -0.14323,0.206482 -0.15417,0.341797 z"
     id="path15" />
  <path
     style="fill:none;stroke:#0000ff;stroke-width:0.05mm"
     d="m -683.12004,18.164298 h -0.0109 l -0.12665,-0.01654 c -0.0413,-0.007 -0.091,-0.01093 -0.14887,-0.01093 -0.0882,0 -0.17498,0.02045 -0.25929,0.06061 -0.0854,0.04123 -0.1651,0.09235 -0.24236,0.154358 v 1.229157 h -0.2921 v -1.730957 h 0.2921 v 0.253692 c 0.11712,-0.09091 0.22049,-0.155761 0.30868,-0.193084 0.0882,-0.03983 0.1778,-0.06061 0.27023,-0.06061 0.0508,0 0.0882,0.0028 0.11007,0.0056 l 0.0991,0.01093 z"
     id="path16" />
  <path
     style="fill:#ff0000;fill-rule:evenodd;stroke:none"
     d="m -680.86262,18.704444 h 9.44385 v 9.432557 h -9.44385 z"
     id="path55" />
  <path
     style="fill:#00e000;fill-rule:evenodd;stroke:none"
     d="m -680.86262,35.215919 h 9.44385 v 9.43396 h -9.44385 z"
     id="path56" />
  <path
     style="fill:#d0d000;fill-rule:evenodd;stroke:none"
     d="m -680.86262,51.729148 h 9.44385 v 9.432556 h -9.44385 z"
     id="path57" />
  <path
     style="fill:#ff8000;fill-rule:evenodd;stroke:none"
     d="m -680.86262,68.240608 h 9.44385 v 9.432556 h -9.44385 z"
     id="path58" />
  <path
     style="fill:#00e0e0;fill-rule:evenodd;stroke:none"
     d="m -680.86262,84.752433 h 9.44385 v 9.43396 h -9.44385 z"
     id="path59" />
  <path
     style="fill:#ff00ff;fill-rule:evenodd;stroke:none"
     d="m -664.3332,18.704444 h 9.44384 v 9.432557 h -9.44384 z"
     id="path60" />
  <path
     style="fill:#b4b4b4;fill-rule:evenodd;stroke:none"
     d="m -664.3332,35.215919 h 9.44384 v 9.43396 h -9.44384 z"
     id="path61" />
  <path
     style="fill:#0000a0;fill-rule:evenodd;stroke:none"
     d="m -664.3332,51.729148 h 9.44384 v 9.432556 h -9.44384 z"
     id="path62" />
  <path
     style="fill:#a00000;fill-rule:evenodd;stroke:none"
     d="m -664.3332,68.240608 h 9.44384 v 9.432556 h -9.44384 z"
     id="path63" />
  <path
     style="fill:#00a000;fill-rule:evenodd;stroke:none"
     d="m -664.3332,84.752433 h 9.44384 v 9.43396 h -9.44384 z"
     id="path64" />
  <path
     style="fill:#a0a000;fill-rule:evenodd;stroke:none"
     d="m -647.80201,18.704444 h 9.44384 v 9.432557 h -9.44384 z"
     id="path65" />
  <path
     style="fill:#c08000;fill-rule:evenodd;stroke:none"
     d="m -647.80201,35.215919 h 9.44384 v 9.43396 h -9.44384 z"
     id="path66" />
  <path
     style="fill:#00a0ff;fill-rule:evenodd;stroke:none"
     d="m -647.80201,51.729148 h 9.44384 v 9.432556 h -9.44384 z"
     id="path67" />
  <path
     style="fill:#a000a0;fill-rule:evenodd;stroke:none"
     d="m -647.80201,68.240608 h 9.44384 v 9.432556 h -9.44384 z"
     id="path68" />
  <path
     style="fill:#808080;fill-rule:evenodd;stroke:none"
     d="m -647.80201,84.752433 h 9.44384 v 9.43396 h -9.44384 z"
     id="path69" />
  <path
     style="fill:#7d87b9;fill-rule:evenodd;stroke:none"
     d="m -631.27266,18.704444 h 9.44385 v 9.432557 h -9.44385 z"
     id="path70" />
  <path
     style="fill:#bb7784;fill-rule:evenodd;stroke:none"
     d="m -631.27266,35.215919 h 9.44385 v 9.43396 h -9.44385 z"
     id="path71" />
  <path
     style="fill:#4a6fe3;fill-rule:evenodd;stroke:none"
     d="m -631.27266,51.729148 h 9.44385 v 9.432556 h -9.44385 z"
     id="path72" />
  <path
     style="fill:#d33f6a;fill-rule:evenodd;stroke:none"
     d="m -631.27266,68.240608 h 9.44385 v 9.432556 h -9.44385 z"
     id="path73" />
  <path
     style="fill:#8cd78c;fill-rule:evenodd;stroke:none"
     d="m -631.27266,84.752433 h 9.44385 v 9.43396 h -9.44385 z"
     id="path74" />
  <path
     style="fill:#f0b98d;fill-rule:evenodd;stroke:none"
     d="m -614.74183,18.704444 h 9.44244 v 9.432557 h -9.44244 z"
     id="path75" />
  <path
     style="fill:#f6c4e1;fill-rule:evenodd;stroke:none"
     d="m -614.74183,35.215919 h 9.44244 v 9.43396 h -9.44244 z"
     id="path76" />
  <path
     style="fill:#fa9ed4;fill-rule:evenodd;stroke:none"
     d="m -614.74183,51.729148 h 9.44244 v 9.432556 h -9.44244 z"
     id="path77" />
  <path
     style="fill:#500a78;fill-rule:evenodd;stroke:none"
     d="m -614.74183,68.240608 h 9.44244 v 9.432556 h -9.44244 z"
     id="path78" />
  <path
     style="fill:#b45a00;fill-rule:evenodd;stroke:none"
     d="m -614.74183,84.752433 h 9.44244 v 9.43396 h -9.44244 z"
     id="path79" />
  <text
     xml:space="preserve"
     style="font-size:3.175px;font-family:sans-serif;-inkscape-font-specification:'sans-serif, Normal';text-align:start;writing-mode:lr-tb;direction:ltr;text-anchor:start;fill:#343434;stroke:#00ff00;stroke-width:0.1"
     x="-690.07715"
     y="46.237148"
     id="text80"><tspan
       sodipodi:role="line"
       id="tspan80"
       style="stroke-width:0.1"
       x="-690.07715"
       y="46.237148" /></text>
  <text
     xml:space="preserve"
     style="font-size:3.175px;font-family:sans-serif;-inkscape-font-specification:'sans-serif, Normal';text-align:start;writing-mode:lr-tb;direction:ltr;text-anchor:start;fill:#0000ff;fill-opacity:0.0392157;stroke:#00ff00;stroke-width:0.1"
     x="-690.52472"
     y="80.702408"
     id="text81"><tspan
       sodipodi:role="line"
       id="tspan81"
       style="stroke-width:0.1"
       x="-690.52472"
       y="80.702408" /></text>
  <text
     xml:space="preserve"
     style="font-size:3.175px;line-height:0;font-family:sans-serif;-inkscape-font-specification:'sans-serif, Normal';text-align:start;letter-spacing:0px;writing-mode:lr-tb;direction:ltr;text-anchor:start;fill:#0000ff;fill-opacity:0.0392157;stroke:#0000ff;stroke-width:0.1;stroke-opacity:1"
     x="-690.1955"
     y="24.614077"
     id="text83"><tspan
       sodipodi:role="line"
       id="tspan83"
       style="stroke-width:0.1"
       x="-690.1955"
       y="24.614077">10</tspan></text>
  <text
     xml:space="preserve"
     style="font-size:3.175px;line-height:0;font-family:sans-serif;-inkscape-font-specification:'sans-serif, Normal';text-align:start;letter-spacing:0px;writing-mode:lr-tb;direction:ltr;text-anchor:start;fill:#0000ff;fill-opacity:0.0392157;stroke:#0000ff;stroke-width:0.1;stroke-opacity:1"
     x="-679.19751"
     y="12.800469"
     id="text83-1"><tspan
       sodipodi:role="line"
       id="tspan83-4"
       style="stroke-width:0.1"
       x="-679.19751"
       y="12.800469">400</tspan></text>
  <text
     xml:space="preserve"
     style="font-size:3.175px;line-height:0;font-family:sans-serif;-inkscape-font-specification:'sans-serif, Normal';text-align:start;letter-spacing:0px;writing-mode:lr-tb;direction:ltr;text-anchor:start;fill:#0000ff;fill-opacity:0.0392157;stroke:#0000ff;stroke-width:0.1;stroke-opacity:1"
     x="-690.05627"
     y="41.019112"
     id="text83-5"><tspan
       sodipodi:role="line"
       id="tspan83-5"
       style="stroke-width:0.1"
       x="-690.05627"
       y="41.019112">20</tspan></text>
  <text
     xml:space="preserve"
     style="font-size:3.175px;line-height:0;font-family:sans-serif;-inkscape-font-specification:'sans-serif, Normal';text-align:start;letter-spacing:0px;writing-mode:lr-tb;direction:ltr;text-anchor:start;fill:#0000ff;fill-opacity:0.0392157;stroke:#0000ff;stroke-width:0.1;stroke-opacity:1"
     x="-690.10095"
     y="57.517982"
     id="text83-5-7"><tspan
       sodipodi:role="line"
       id="tspan83-5-1"
       style="stroke-width:0.1"
       x="-690.10095"
       y="57.517982">30</tspan></text>
  <text
     xml:space="preserve"
     style="font-size:3.175px;line-height:0;font-family:sans-serif;-inkscape-font-specification:'sans-serif, Normal';text-align:start;letter-spacing:0px;writing-mode:lr-tb;direction:ltr;text-anchor:start;fill:#0000ff;fill-opacity:0.0392157;stroke:#0000ff;stroke-width:0.1;stroke-opacity:1"
     x="-689.97668"
     y="74.101784"
     id="text83-5-7-1"><tspan
       sodipodi:role="line"
       id="tspan83-5-1-5"
       style="stroke-width:0.1"
       x="-689.97668"
       y="74.101784">40</tspan></text>
  <text
     xml:space="preserve"
     style="font-size:3.175px;line-height:0;font-family:sans-serif;-inkscape-font-specification:'sans-serif, Normal';text-align:start;letter-spacing:0px;writing-mode:lr-tb;direction:ltr;text-anchor:start;fill:#0000ff;fill-opacity:0.0392157;stroke:#0000ff;stroke-width:0.1;stroke-opacity:1"
     x="-690.08289"
     y="90.445976"
     id="text83-5-7-2"><tspan
       sodipodi:role="line"
       id="tspan83-5-1-7"
       style="stroke-width:0.1"
       x="-690.08289"
       y="90.445976">50</tspan></text>
  <text
     xml:space="preserve"
     style="font-size:3.175px;line-height:0;font-family:sans-serif;-inkscape-font-specification:'sans-serif, Normal';text-align:start;letter-spacing:0px;writing-mode:lr-tb;direction:ltr;text-anchor:start;fill:#0000ff;fill-opacity:0.0392157;stroke:#0000ff;stroke-width:0.1;stroke-opacity:1"
     x="-613.2265"
     y="12.863052"
     id="text83-1-2"><tspan
       sodipodi:role="line"
       id="tspan83-4-3"
       style="stroke-width:0.1"
       x="-613.2265"
       y="12.863052">100</tspan></text>
  <text
     xml:space="preserve"
     style="font-size:3.175px;line-height:0;font-family:sans-serif;-inkscape-font-specification:'sans-serif, Normal';text-align:start;letter-spacing:0px;writing-mode:lr-tb;direction:ltr;text-anchor:start;fill:#0000ff;fill-opacity:0.0392157;stroke:#0000ff;stroke-width:0.1;stroke-opacity:1"
     x="-646.15485"
     y="12.824883"
     id="text83-1-2-2"><tspan
       sodipodi:role="line"
       id="tspan83-4-3-2"
       style="stroke-width:0.1"
       x="-646.15485"
       y="12.824883">250</tspan></text>
  <text
     xml:space="preserve"
     style="font-size:3.175px;line-height:0;font-family:sans-serif;-inkscape-font-specification:'sans-serif, Normal';text-align:start;letter-spacing:0px;writing-mode:lr-tb;direction:ltr;text-anchor:start;fill:#0000ff;fill-opacity:0.0392157;stroke:#0000ff;stroke-width:0.1;stroke-opacity:1"
     x="-662.74994"
     y="12.842509"
     id="text83-1-2-2-1"><tspan
       sodipodi:role="line"
       id="tspan83-4-3-2-6"
       style="stroke-width:0.1"
       x="-662.74994"
       y="12.842509">325</tspan></text>
  <text
     xml:space="preserve"
     style="font-size:3.175px;line-height:0;font-family:sans-serif;-inkscape-font-specification:'sans-serif, Normal';text-align:start;letter-spacing:0px;writing-mode:lr-tb;direction:ltr;text-anchor:start;fill:#0000ff;fill-opacity:0.0392157;stroke:#0000ff;stroke-width:0.1;stroke-opacity:1"
     x="-629.7771"
     y="12.796088"
     id="text83-1-2-2-8"><tspan
       sodipodi:role="line"
       id="tspan83-4-3-2-5"
       style="stroke-width:0.1"
       x="-629.7771"
       y="12.796088">175</tspan></text>
</svg>
