<?xml version="1.0" encoding="UTF-8" standalone="no"?>
<svg
   width="95.330mm"
   height="95.227mm"
   viewBox="-694.665039 4.386688 95.330078 95.226639"
   version="1.1"
   id="svg79"
   sodipodi:docname="StudioLaserCuttingSquare_350-150by10-20.svg"
   inkscape:version="1.4 (86a8ad7, 2024-10-11)"
   inkscape:export-filename="C:\Users\Maste\Downloads\StudioLaserCuttingSquare_350-150by10-20.png"
   inkscape:export-xdpi="96"
   inkscape:export-ydpi="96"
   xmlns:inkscape="http://www.inkscape.org/namespaces/inkscape"
   xmlns:sodipodi="http://sodipodi.sourceforge.net/DTD/sodipodi-0.dtd"
   xmlns="http://www.w3.org/2000/svg"
   xmlns:svg="http://www.w3.org/2000/svg">
  <defs
     id="defs79" />
  <sodipodi:namedview
     id="namedview79"
     pagecolor="#ffffff"
     bordercolor="#000000"
     borderopacity="0.25"
     inkscape:showpageshadow="2"
     inkscape:pageopacity="0.0"
     inkscape:pagecheckerboard="0"
     inkscape:deskcolor="#d1d1d1"
     inkscape:document-units="mm"
     inkscape:zoom="1.18223"
     inkscape:cx="225.42145"
     inkscape:cy="263.48511"
     inkscape:window-width="1920"
     inkscape:window-height="1111"
     inkscape:window-x="-9"
     inkscape:window-y="-9"
     inkscape:window-maximized="1"
     inkscape:current-layer="svg79" />
  <path
     style="stroke:#000000;stroke-width:0.050000mm;fill:none"
     d="M-0.017992,-297.020905L-95.348068,-297.020905L-95.348068,-201.794266L-0.017992,-201.794266L-0.017992,-297.020905z"
     id="path1"
     transform="matrix(-1,0,0,1,-694.683044,301.407593)" />
  <path
     style="fill:none;stroke:#0000ff;stroke-width:0.05mm"
     d="m -681.10814,15.612266 c 0.0924,0 0.18203,0.02185 0.27022,0.06592 0.0882,0.04157 0.16263,0.09937 0.22049,0.176544 0.0663,0.08139 0.11994,0.176178 0.15981,0.286499 0.036,0.110291 0.055,0.242432 0.055,0.39679 0,0.169494 -0.0148,0.319976 -0.0441,0.452118 -0.0328,0.132141 -0.0797,0.267456 -0.14322,0.402435 h -0.38594 v -0.02222 c 0.0995,-0.112762 0.17533,-0.248077 0.22613,-0.402405 0.0526,-0.154022 0.0773,-0.297424 0.0773,-0.429931 0,-0.189942 -0.0346,-0.33902 -0.10478,-0.446503 -0.0688,-0.106049 -0.16545,-0.159638 -0.28681,-0.159638 -0.10195,0 -0.17745,0.02609 -0.22578,0.07721 -0.0469,0.05215 -0.0854,0.126831 -0.11571,0.225861 l -0.0497,0.259002 -0.0497,0.28122 c -0.0441,0.206878 -0.11712,0.358398 -0.22049,0.457428 -0.10583,0.09937 -0.24377,0.149048 -0.4131,0.149048 -0.19438,0 -0.35278,-0.07999 -0.47413,-0.242798 -0.12418,-0.165284 -0.18733,-0.371796 -0.18733,-0.622681 0,-0.165283 0.0162,-0.314331 0.0494,-0.446503 0.0303,-0.134948 0.0663,-0.25653 0.11042,-0.364013 h 0.36372 v 0.02222 c -0.073,0.08811 -0.13371,0.20401 -0.18204,0.347107 -0.0508,0.143403 -0.0769,0.291047 -0.0769,0.441193 0,0.165253 0.0356,0.29776 0.10442,0.39679 0.0663,0.09936 0.15452,0.148712 0.26458,0.148712 0.0967,0 0.1711,-0.02326 0.22613,-0.07153 0.055,-0.05109 0.0977,-0.139191 0.12665,-0.264649 l 0.0497,-0.281219 c 0.0222,-0.123688 0.0441,-0.228699 0.0663,-0.313996 0.0441,-0.16806 0.11289,-0.29776 0.20391,-0.385864 0.0921,-0.08807 0.22048,-0.132141 0.38559,-0.132141 z"
     id="path2" />
  <path
     style="fill:none;stroke:#0000ff;stroke-width:0.05mm"
     d="m -682.0617,13.612449 c 0.10336,0 0.19861,0.01938 0.28681,0.0553 0.0882,0.03314 0.16404,0.08246 0.22577,0.148712 0.0815,0.07718 0.14217,0.170898 0.18204,0.281219 0.0413,0.107483 0.0607,0.242432 0.0607,0.407715 v 0.308716 h 0.85972 v 0.308685 h -2.31492 v -0.628328 c 0,-0.139191 0.0137,-0.256195 0.0385,-0.352753 0.0222,-0.09512 0.0593,-0.179016 0.11042,-0.253357 0.0593,-0.08844 0.13229,-0.155761 0.22048,-0.20404 0.0882,-0.04687 0.19826,-0.07187 0.33056,-0.07187 z"
     id="path3" />
  <path
     style="fill:none;stroke:#0000ff;stroke-width:0.05mm"
     d="m -682.05041,13.932395 c -0.0801,0 -0.15029,0.01517 -0.20956,0.04407 -0.0579,0.02606 -0.10618,0.06625 -0.14322,0.121215 -0.0332,0.05252 -0.0568,0.108887 -0.072,0.170929 -0.0138,0.06342 -0.0219,0.143403 -0.0219,0.242432 v 0.30307 h 0.92604 v -0.259033 c 0,-0.124023 -0.0109,-0.225861 -0.0332,-0.30304 -0.0219,-0.07718 -0.0564,-0.13919 -0.10478,-0.187469 -0.0508,-0.04687 -0.10477,-0.07999 -0.1598,-0.09903 -0.055,-0.02222 -0.11571,-0.03314 -0.18168,-0.03314 z"
     id="path4" />
  <path
     style="fill:none;stroke:#0000ff;stroke-width:0.05mm"
     d="m -680.44669,11.687278 v 1.521637 h -2.31492 v -1.521637 h 0.27551 v 1.212982 h 0.63395 v -1.212982 h 0.27552 v 1.212982 h 0.85442 v -1.212982 z"
     id="path5" />
  <path
     style="fill:none;stroke:#0000ff;stroke-width:0.05mm"
     d="m -680.44669,9.6782755 v 1.5213015 h -2.31492 V 9.6782755 h 0.27551 v 1.2125855 h 0.63395 V 9.6782755 h 0.27552 v 1.2125855 h 0.85442 V 9.6782755 Z"
     id="path6" />
  <path
     style="fill:none;stroke:#0000ff;stroke-width:0.05mm"
     d="m -681.59851,7.2404405 c 0.20955,0 0.40111,0.046844 0.57327,0.137756 0.16933,0.092346 0.30021,0.213562 0.39123,0.364044 0.0663,0.107483 0.1143,0.224488 0.14323,0.352753 0.0303,0.129303 0.0441,0.300232 0.0441,0.512726 v 0.584259 h -2.31492 v -0.57898 c 0,-0.223083 0.0166,-0.402435 0.0497,-0.534576 0.0328,-0.132507 0.0797,-0.24527 0.13758,-0.341827 0.0991,-0.154358 0.23142,-0.275574 0.39688,-0.363678 0.16263,-0.08844 0.3556,-0.132477 0.5789,-0.132477 z"
     id="path7" />
  <path
     style="fill:none;stroke:#0000ff;stroke-width:0.05mm"
     d="m -681.60415,7.5603865 c -0.17921,0 -0.33197,0.031372 -0.45755,0.093384 -0.12383,0.063446 -0.22296,0.157196 -0.29739,0.281219 -0.0512,0.092346 -0.0857,0.190277 -0.10478,0.292145 -0.0222,0.103607 -0.0332,0.226227 -0.0332,0.369293 v 0.286866 h 1.78576 v -0.286866 c 0,-0.145874 -0.0109,-0.275543 -0.0328,-0.385864 -0.0222,-0.110291 -0.0621,-0.210724 -0.12135,-0.30307 -0.073,-0.117004 -0.16828,-0.20401 -0.28681,-0.259003 -0.12101,-0.05777 -0.27129,-0.088104 -0.45191,-0.088104 z"
     id="path8" />
  <path
     style="fill:none;stroke:#0000ff;stroke-width:0.05mm"
     d="m -690.92666,18.500381 c 0,0.103576 -0.019,0.198394 -0.055,0.286834 -0.0371,0.08527 -0.0868,0.159638 -0.14887,0.225891 -0.0811,0.07718 -0.17639,0.136384 -0.28646,0.176545 -0.1076,0.04123 -0.24271,0.06061 -0.40781,0.06061 h -0.30868 v 0.859863 h -0.30868 v -2.309601 h 0.62829 c 0.139,0 0.25612,0.01373 0.35278,0.03839 0.0949,0.02222 0.18168,0.05817 0.25894,0.104675 0.0882,0.05957 0.15593,0.132508 0.20391,0.220581 0.0469,0.08813 0.0716,0.201233 0.0716,0.336213 z"
     id="path9" />
  <path
     style="fill:none;stroke:#0000ff;stroke-width:0.05mm"
     d="m -691.24628,18.505996 c 0,-0.07718 -0.0152,-0.144806 -0.0441,-0.204041 -0.0261,-0.06201 -0.0688,-0.111694 -0.12665,-0.148681 -0.0526,-0.0289 -0.10901,-0.05112 -0.1711,-0.06625 -0.0631,-0.01373 -0.14323,-0.02185 -0.24236,-0.02185 h -0.30303 v 0.920441 h 0.25894 c 0.12382,0 0.22613,-0.01089 0.30303,-0.03314 0.0773,-0.02219 0.13935,-0.05637 0.18768,-0.104645 0.0508,-0.04684 0.0854,-0.09936 0.10442,-0.154358 0.0222,-0.0553 0.0332,-0.11734 0.0332,-0.187469 z"
     id="path10" />
  <path
     style="fill:none;stroke:#0000ff;stroke-width:0.05mm"
     d="m -689.1476,19.244613 c 0,0.284027 -0.0744,0.50711 -0.22049,0.672394 -0.14322,0.162811 -0.33619,0.242797 -0.57855,0.242797 -0.24659,0 -0.44098,-0.07999 -0.5842,-0.242797 -0.14358,-0.165284 -0.2152,-0.388367 -0.2152,-0.672394 0,-0.282623 0.0716,-0.504273 0.2152,-0.667053 0.14322,-0.165284 0.33761,-0.248108 0.5842,-0.248108 0.24236,0 0.43533,0.08282 0.57855,0.248108 0.14605,0.16278 0.22049,0.38443 0.22049,0.667053 z"
     id="path11" />
  <path
     style="fill:none;stroke:#0000ff;stroke-width:0.05mm"
     d="m -689.44499,19.244613 c 0,-0.223389 -0.0441,-0.388672 -0.13229,-0.496155 -0.0882,-0.11029 -0.21238,-0.165253 -0.36936,-0.165253 -0.1584,0 -0.28117,0.05496 -0.36936,0.165253 -0.0854,0.107483 -0.12665,0.272766 -0.12665,0.496155 0,0.217773 0.0413,0.383056 0.12665,0.496185 0.0882,0.110291 0.21096,0.165283 0.36936,0.165283 0.15698,0 0.28116,-0.05499 0.36936,-0.165283 0.0882,-0.11029 0.13229,-0.275574 0.13229,-0.496185 z"
     id="path12" />
  <path
     style="fill:none;stroke:#0000ff;stroke-width:0.05mm"
     d="m -686.5127,18.379165 -0.45191,1.730957 h -0.27023 l -0.44626,-1.334168 -0.44098,1.334168 h -0.27022 l -0.45756,-1.730957 h 0.30339 l 0.31962,1.339447 0.43533,-1.339447 h 0.23706 l 0.44662,1.339447 0.30304,-1.339447 z"
     id="path13" />
  <path
     style="fill:none;stroke:#0000ff;stroke-width:0.05mm"
     d="m -684.6384,19.272109 h -1.27881 c 0,0.107483 0.0137,0.201233 0.0441,0.28122 0.0328,0.07718 0.0769,0.141998 0.13229,0.192749 0.055,0.05252 0.11854,0.09094 0.19297,0.115966 0.073,0.02182 0.15558,0.03311 0.24801,0.03311 0.11712,0 0.23424,-0.02222 0.35277,-0.06625 0.12101,-0.04687 0.20673,-0.09515 0.25894,-0.143432 h 0.0109 v 0.319977 c -0.0963,0.04123 -0.19544,0.07578 -0.29739,0.104675 -0.10337,0.02466 -0.21238,0.03842 -0.32526,0.03842 -0.28681,0 -0.51153,-0.07721 -0.67275,-0.231536 -0.16263,-0.154358 -0.24236,-0.374604 -0.24236,-0.661469 0,-0.282257 0.0773,-0.50708 0.23142,-0.672333 0.15452,-0.168121 0.35843,-0.253753 0.61207,-0.253753 0.23425,0 0.41452,0.06909 0.5401,0.20404 0.12806,0.136383 0.19297,0.330902 0.19297,0.584259 z"
     id="path14" />
  <path
     style="fill:none;stroke:#0000ff;stroke-width:0.05mm"
     d="m -684.9252,19.051864 c 0,-0.154358 -0.0385,-0.271698 -0.11571,-0.353089 -0.0773,-0.08386 -0.19297,-0.126525 -0.34714,-0.126525 -0.15875,0 -0.28398,0.04687 -0.375,0.137817 -0.0924,0.09229 -0.14323,0.206482 -0.15416,0.341797 z"
     id="path15" />
  <path
     style="fill:none;stroke:#0000ff;stroke-width:0.05mm"
     d="m -683.12004,18.693465 h -0.0109 l -0.12664,-0.01654 c -0.0413,-0.007 -0.091,-0.01093 -0.14888,-0.01093 -0.0882,0 -0.17497,0.02045 -0.25929,0.06061 -0.0854,0.04123 -0.1651,0.09235 -0.24236,0.154358 v 1.229157 h -0.2921 v -1.730955 h 0.2921 v 0.253692 c 0.11713,-0.09091 0.22049,-0.155761 0.30868,-0.193084 0.0882,-0.03983 0.17781,-0.06061 0.27023,-0.06061 0.0508,0 0.0882,0.0028 0.11007,0.0056 l 0.0991,0.01093 z"
     id="path16" />
  <path
     style="fill:none;stroke:#0000ff;stroke-width:0.05mm"
     d="m -677.58143,12.307411 c 0.0508,0.04443 0.0907,0.102203 0.121,0.170929 0.0332,0.06625 0.0497,0.152923 0.0497,0.259369 0,0.107452 -0.0194,0.203674 -0.055,0.292114 -0.0374,0.0853 -0.091,0.159637 -0.15981,0.225891 -0.0773,0.07434 -0.16968,0.129334 -0.27587,0.165283 -0.10725,0.03311 -0.22296,0.04968 -0.34713,0.04968 -0.12947,0 -0.25647,-0.01657 -0.3803,-0.04968 -0.12135,-0.0289 -0.22331,-0.06204 -0.30339,-0.09903 v -0.325256 h 0.0222 c 0.0882,0.05917 0.19014,0.108887 0.30868,0.148682 0.12135,0.03738 0.23706,0.05499 0.34713,0.05499 0.0663,0 0.13511,-0.01093 0.20955,-0.03278 0.073,-0.02222 0.13229,-0.05249 0.17639,-0.09372 0.0469,-0.04687 0.0826,-0.09656 0.10477,-0.149078 0.0247,-0.05496 0.0385,-0.124054 0.0385,-0.20932 0,-0.08423 -0.0138,-0.15152 -0.0385,-0.204041 -0.0261,-0.05496 -0.0635,-0.099 -0.11041,-0.132141 -0.048,-0.0289 -0.10443,-0.04968 -0.17075,-0.06061 -0.066,-0.01373 -0.13793,-0.02222 -0.21484,-0.02222 h -0.13794 V 12.03747 h 0.11042 c 0.15699,0 0.28223,-0.0303 0.37465,-0.09375 0.0952,-0.06622 0.14323,-0.162445 0.14323,-0.292114 0,-0.05496 -0.0138,-0.101838 -0.0385,-0.143433 -0.0222,-0.04404 -0.055,-0.07858 -0.0991,-0.104675 -0.0441,-0.02466 -0.0924,-0.04404 -0.14358,-0.05496 -0.0522,-0.01129 -0.10866,-0.01654 -0.17075,-0.01654 -0.0991,0 -0.2039,0.01938 -0.31432,0.05496 -0.11007,0.03311 -0.21484,0.08279 -0.31397,0.149048 h -0.0166 v -0.325243 c 0.073,-0.03595 0.17075,-0.06906 0.29211,-0.0994 0.12417,-0.03311 0.24376,-0.04965 0.35842,-0.04965 0.11289,0 0.21202,0.01126 0.29739,0.03311 0.0882,0.02219 0.16686,0.05533 0.23706,0.0994 0.073,0.05215 0.12842,0.112763 0.16546,0.181824 0.0399,0.0701 0.0607,0.15152 0.0607,0.242432 0,0.129699 -0.0469,0.241394 -0.13794,0.336212 -0.0921,0.09653 -0.19826,0.157135 -0.31962,0.182159 v 0.02185 c 0.0469,0.0085 0.10196,0.02609 0.16546,0.05533 0.066,0.02606 0.12135,0.0578 0.16545,0.09338 z"
     id="path17" />
  <path
     style="fill:none;stroke:#0000ff;stroke-width:0.05mm"
     d="m -675.37269,12.687996 c 0,0.107483 -0.0205,0.20935 -0.0607,0.308715 -0.037,0.09903 -0.0907,0.181824 -0.15981,0.248078 -0.0744,0.07437 -0.16263,0.130737 -0.26458,0.170563 -0.10336,0.03595 -0.22331,0.05533 -0.35807,0.05533 -0.12982,0 -0.25224,-0.01514 -0.36936,-0.04404 -0.1143,-0.02502 -0.21237,-0.05673 -0.2921,-0.09375 v -0.325256 h 0.0219 c 0.084,0.05496 0.18345,0.101837 0.29775,0.137756 0.11289,0.03738 0.22613,0.05499 0.3362,0.05499 0.073,0 0.14322,-0.0081 0.20955,-0.0275 0.0688,-0.02185 0.13229,-0.05777 0.18732,-0.11029 0.0441,-0.04404 0.0773,-0.09622 0.0991,-0.159638 0.025,-0.06201 0.0388,-0.133911 0.0388,-0.214965 0,-0.07999 -0.0152,-0.149048 -0.0441,-0.20401 -0.0265,-0.05499 -0.0635,-0.0994 -0.11042,-0.132142 -0.055,-0.03598 -0.12135,-0.06204 -0.19826,-0.07721 -0.0773,-0.01794 -0.16404,-0.02783 -0.25929,-0.02783 -0.0921,0 -0.18027,0.0085 -0.26458,0.02222 l -0.21485,0.03311 v -1.190761 h 1.38889 v 0.270294 h -1.09114 v 0.617401 l 0.13758,-0.0056 0.12136,-0.0056 c 0.12417,0 0.23283,0.01126 0.32526,0.03314 0.0949,0.01938 0.18309,0.05496 0.26458,0.11026 0.0797,0.05499 0.14323,0.129364 0.18733,0.220642 0.0469,0.08807 0.0716,0.201203 0.0716,0.336152 z"
     id="path18" />
  <path
     style="fill:none;stroke:#0000ff;stroke-width:0.05mm"
     d="m -673.33575,12.263374 c 0,0.416168 -0.0663,0.721008 -0.19861,0.915161 -0.12947,0.195587 -0.32915,0.292145 -0.60079,0.292145 -0.27975,0 -0.48365,-0.09656 -0.61171,-0.292145 -0.12559,-0.198395 -0.18768,-0.5018 -0.18768,-0.909515 0,-0.410553 0.0635,-0.713959 0.19297,-0.909546 0.12841,-0.194153 0.33091,-0.292114 0.60642,-0.292114 0.27552,0 0.47696,0.09936 0.60643,0.29776 0.12806,0.198394 0.19297,0.498626 0.19297,0.898254 z"
     id="path19" />
  <path
     style="fill:none;stroke:#0000ff;stroke-width:0.05mm"
     d="m -673.74392,12.968879 c 0.036,-0.08389 0.0607,-0.181854 0.072,-0.292144 0.0138,-0.112763 0.0219,-0.25055 0.0219,-0.413361 0,-0.154358 -0.008,-0.287933 -0.0219,-0.402435 -0.0113,-0.117005 -0.0374,-0.216034 -0.0773,-0.297425 -0.0332,-0.07999 -0.0829,-0.140625 -0.14887,-0.181854 -0.0635,-0.04016 -0.14182,-0.06061 -0.23707,-0.06061 -0.0991,0 -0.18062,0.02045 -0.24235,0.06061 -0.0635,0.04123 -0.11466,0.101868 -0.15452,0.181854 -0.0332,0.07718 -0.0579,0.179017 -0.0716,0.30304 -0.0109,0.121246 -0.0166,0.256226 -0.0166,0.402466 0,0.162445 0.006,0.29776 0.0166,0.407715 0.0109,0.107483 0.0346,0.202636 0.0716,0.286834 0.0332,0.08142 0.0801,0.143433 0.14323,0.18747 0.0663,0.04123 0.15028,0.06061 0.25364,0.06061 0.0952,0 0.17357,-0.01938 0.23707,-0.06061 0.066,-0.04016 0.11712,-0.100769 0.15416,-0.18216 z"
     id="path20" />
  <path
     style="fill:none;stroke:#0000ff;stroke-width:0.05mm"
     d="m -688.53412,24.745918 h -1.25131 v -0.237152 h 0.48507 v -1.543518 h -0.48507 v -0.214966 c 0.066,0 0.13512,-0.0053 0.20955,-0.01654 0.0769,-0.01095 0.13335,-0.02469 0.17075,-0.04407 0.0469,-0.02466 0.084,-0.0578 0.11007,-0.09903 0.0289,-0.04016 0.0455,-0.09372 0.0497,-0.159974 h 0.24271 v 2.078095 h 0.46849 z"
     id="path21" />
  <path
     style="fill:none;stroke:#0000ff;stroke-width:0.05mm"
     d="m -686.38041,23.588295 c 0,0.416168 -0.066,0.720642 -0.19827,0.914825 -0.12982,0.195923 -0.32949,0.292114 -0.60078,0.292114 -0.27975,0 -0.48401,-0.09619 -0.61207,-0.292114 -0.12523,-0.198395 -0.18732,-0.501465 -0.18732,-0.909546 0,-0.410522 0.0635,-0.713592 0.19297,-0.909546 0.12806,-0.194153 0.33055,-0.292114 0.60642,-0.292114 0.27552,0 0.47661,0.09936 0.60608,0.29776 0.12841,0.198395 0.19297,0.498993 0.19297,0.898621 z"
     id="path22" />
  <path
     style="fill:none;stroke:#0000ff;stroke-width:0.05mm"
     d="m -686.78823,24.29377 c 0.0356,-0.0842 0.0607,-0.181824 0.0716,-0.292115 0.0138,-0.113128 0.0222,-0.250915 0.0222,-0.41336 0,-0.154358 -0.008,-0.288269 -0.0222,-0.402436 -0.0109,-0.11734 -0.037,-0.216369 -0.0773,-0.29779 -0.0328,-0.07999 -0.0825,-0.140595 -0.14887,-0.181824 -0.0632,-0.03983 -0.14182,-0.06061 -0.23672,-0.06061 -0.0995,0 -0.18062,0.02078 -0.24271,0.06061 -0.0635,0.04123 -0.1143,0.101837 -0.15416,0.181824 -0.0332,0.07718 -0.0582,0.179382 -0.072,0.303436 -0.0109,0.121216 -0.0162,0.256195 -0.0162,0.402069 0,0.162812 0.005,0.297791 0.0162,0.408081 0.0113,0.107453 0.0346,0.202606 0.072,0.286469 0.0328,0.08142 0.0797,0.143432 0.14323,0.1875 0.066,0.04123 0.15028,0.06061 0.25364,0.06061 0.0949,0 0.17357,-0.01938 0.23672,-0.06061 0.0663,-0.03983 0.11712,-0.100434 0.15451,-0.181854 z"
     id="path23" />
  <path
     style="fill:none;stroke:#0000ff;stroke-width:0.05mm"
     d="m -660.9155,12.307411 c 0.0508,0.04443 0.091,0.102203 0.121,0.170929 0.0332,0.06625 0.0497,0.152923 0.0497,0.259369 0,0.107452 -0.0194,0.203674 -0.055,0.292114 -0.0374,0.0853 -0.091,0.159637 -0.15981,0.225891 -0.0773,0.07434 -0.16969,0.129334 -0.27587,0.165283 -0.10725,0.03311 -0.22296,0.04968 -0.34713,0.04968 -0.12948,0 -0.25612,-0.01657 -0.3803,-0.04968 -0.12136,-0.0289 -0.22331,-0.06204 -0.30304,-0.09903 v -0.325256 h 0.0219 c 0.0882,0.05917 0.19014,0.108887 0.30868,0.148682 0.12135,0.03738 0.23706,0.05499 0.34713,0.05499 0.0663,0 0.13511,-0.01093 0.20955,-0.03278 0.073,-0.02222 0.13229,-0.05249 0.17639,-0.09372 0.0469,-0.04687 0.0829,-0.09656 0.10478,-0.149078 0.0247,-0.05496 0.0384,-0.124054 0.0384,-0.20932 0,-0.08423 -0.0137,-0.15152 -0.0384,-0.204041 -0.0261,-0.05496 -0.0635,-0.099 -0.11007,-0.132141 -0.0483,-0.0289 -0.10478,-0.04968 -0.1711,-0.06061 -0.066,-0.01373 -0.13759,-0.02222 -0.21484,-0.02222 h -0.13794 V 12.03747 h 0.11042 c 0.15699,0 0.28257,-0.0303 0.37465,-0.09375 0.0952,-0.06622 0.14358,-0.162445 0.14358,-0.292114 0,-0.05496 -0.0141,-0.101838 -0.0388,-0.143433 -0.0219,-0.04404 -0.055,-0.07858 -0.0991,-0.104675 -0.0441,-0.02466 -0.0924,-0.04404 -0.14323,-0.05496 -0.0526,-0.01129 -0.10901,-0.01654 -0.1711,-0.01654 -0.0991,0 -0.2039,0.01938 -0.31397,0.05496 -0.11042,0.03311 -0.2152,0.08279 -0.31433,0.149048 h -0.0166 v -0.325243 c 0.073,-0.03595 0.17075,-0.06906 0.2921,-0.0994 0.12418,-0.03311 0.24412,-0.04965 0.35842,-0.04965 0.11289,0 0.21202,0.01126 0.29775,0.03311 0.0882,0.02219 0.16651,0.05533 0.23707,0.0994 0.073,0.05215 0.12806,0.112763 0.1651,0.181824 0.0402,0.0701 0.0607,0.15152 0.0607,0.242432 0,0.129699 -0.0469,0.241394 -0.13758,0.336212 -0.0924,0.09653 -0.19861,0.157135 -0.31997,0.182159 v 0.02185 c 0.0469,0.0085 0.10195,0.02609 0.16545,0.05533 0.0663,0.02606 0.12136,0.0578 0.16546,0.09338 z"
     id="path24" />
  <path
     style="fill:none;stroke:#0000ff;stroke-width:0.05mm"
     d="m -658.69159,12.263374 c 0,0.416168 -0.066,0.721008 -0.19826,0.915161 -0.12947,0.195587 -0.3295,0.292145 -0.60078,0.292145 -0.27976,0 -0.48366,-0.09656 -0.61207,-0.292145 -0.12524,-0.198395 -0.18733,-0.5018 -0.18733,-0.909515 0,-0.410553 0.0635,-0.713959 0.19297,-0.909546 0.12806,-0.194153 0.3309,-0.292114 0.60643,-0.292114 0.27552,0 0.4766,0.09936 0.60642,0.29776 0.12806,0.198394 0.19262,0.498626 0.19262,0.898254 z"
     id="path25" />
  <path
     style="fill:none;stroke:#0000ff;stroke-width:0.05mm"
     d="m -659.0994,12.968879 c 0.036,-0.08389 0.0607,-0.181854 0.0716,-0.292144 0.0138,-0.112763 0.0222,-0.25055 0.0222,-0.413361 0,-0.154358 -0.008,-0.287933 -0.0222,-0.402435 -0.0109,-0.117005 -0.037,-0.216034 -0.0769,-0.297425 -0.0332,-0.07999 -0.0829,-0.140625 -0.14888,-0.181854 -0.0635,-0.04016 -0.14217,-0.06061 -0.23706,-0.06061 -0.0991,0 -0.18063,0.02045 -0.24272,0.06061 -0.0631,0.04123 -0.1143,0.101868 -0.15416,0.181854 -0.0332,0.07718 -0.0578,0.179017 -0.0716,0.30304 -0.0113,0.121246 -0.0166,0.256226 -0.0166,0.402466 0,0.162445 0.005,0.29776 0.0166,0.407715 0.0109,0.107483 0.0342,0.202636 0.0716,0.286834 0.0332,0.08142 0.0797,0.143433 0.14323,0.18747 0.0663,0.04123 0.15028,0.06061 0.25365,0.06061 0.0949,0 0.17356,-0.01938 0.23706,-0.06061 0.066,-0.04016 0.11713,-0.100769 0.15417,-0.18216 z"
     id="path26" />
  <path
     style="fill:none;stroke:#0000ff;stroke-width:0.05mm"
     d="m -656.66982,12.263374 c 0,0.416168 -0.0663,0.721008 -0.19862,0.915161 -0.12947,0.195587 -0.32914,0.292145 -0.60078,0.292145 -0.27975,0 -0.48366,-0.09656 -0.61172,-0.292145 -0.12558,-0.198395 -0.18732,-0.5018 -0.18732,-0.909515 0,-0.410553 0.0631,-0.713959 0.19297,-0.909546 0.12806,-0.194153 0.33055,-0.292114 0.60607,-0.292114 0.27587,0 0.47696,0.09936 0.60643,0.29776 0.12806,0.198394 0.19297,0.498626 0.19297,0.898254 z"
     id="path27" />
  <path
     style="fill:none;stroke:#0000ff;stroke-width:0.05mm"
     d="m -657.07763,12.968879 c 0.0356,-0.08389 0.0607,-0.181854 0.0716,-0.292144 0.0138,-0.112763 0.0219,-0.25055 0.0219,-0.413361 0,-0.154358 -0.008,-0.287933 -0.0219,-0.402435 -0.0109,-0.117005 -0.0374,-0.216034 -0.0773,-0.297425 -0.0332,-0.07999 -0.0826,-0.140625 -0.14887,-0.181854 -0.0635,-0.04016 -0.14182,-0.06061 -0.23707,-0.06061 -0.0991,0 -0.18027,0.02045 -0.24235,0.06061 -0.0635,0.04123 -0.11431,0.101868 -0.15452,0.181854 -0.0328,0.07718 -0.0579,0.179017 -0.0716,0.30304 -0.0109,0.121246 -0.0166,0.256226 -0.0166,0.402466 0,0.162445 0.006,0.29776 0.0166,0.407715 0.0109,0.107483 0.0346,0.202636 0.0716,0.286834 0.0332,0.08142 0.0801,0.143433 0.14358,0.18747 0.066,0.04123 0.14993,0.06061 0.25329,0.06061 0.0952,0 0.17357,-0.01938 0.23707,-0.06061 0.0663,-0.04016 0.11712,-0.100769 0.15452,-0.18216 z"
     id="path28" />
  <path
     style="fill:none;stroke:#0000ff;stroke-width:0.05mm"
     d="m -644.11446,13.420997 h -1.56563 v -0.325256 l 0.32526,-0.275604 c 0.11042,-0.09512 0.21237,-0.188874 0.30868,-0.281189 0.19862,-0.189942 0.33337,-0.342865 0.40781,-0.457398 0.073,-0.113128 0.11042,-0.234375 0.11042,-0.363678 0,-0.121216 -0.0413,-0.214966 -0.12135,-0.281219 -0.0773,-0.06873 -0.18733,-0.104645 -0.33055,-0.104645 -0.0924,0 -0.19298,0.01654 -0.30339,0.04965 -0.11007,0.03278 -0.21767,0.0853 -0.31962,0.154358 h -0.0166 V 11.21076 c 0.073,-0.03595 0.17074,-0.06906 0.2921,-0.0994 0.12417,-0.03311 0.24412,-0.04965 0.35842,-0.04965 0.23424,0 0.42016,0.05954 0.55669,0.176544 0.13511,0.114166 0.2039,0.268524 0.2039,0.463043 0,0.08811 -0.0138,0.170899 -0.0385,0.248078 -0.0222,0.07437 -0.054,0.145904 -0.0938,0.214965 -0.0413,0.06345 -0.0882,0.125458 -0.14323,0.1875 -0.055,0.06305 -0.12136,0.130707 -0.19862,0.203644 -0.11006,0.110321 -0.22436,0.217804 -0.34148,0.320008 l -0.33091,0.280853 h 1.24037 z"
     id="path29" />
  <path
     style="fill:none;stroke:#0000ff;stroke-width:0.05mm"
     d="m -642.10963,12.687996 c 0,0.107483 -0.0205,0.20935 -0.0607,0.308715 -0.037,0.09903 -0.0907,0.181824 -0.15981,0.248078 -0.0744,0.07437 -0.16263,0.130737 -0.26459,0.170563 -0.10336,0.03595 -0.22295,0.05533 -0.35807,0.05533 -0.12946,0 -0.25223,-0.01514 -0.36935,-0.04404 -0.1143,-0.02502 -0.21237,-0.05673 -0.2921,-0.09375 v -0.325256 h 0.0219 c 0.084,0.05496 0.18344,0.101837 0.29774,0.137756 0.1129,0.03738 0.22614,0.05499 0.3362,0.05499 0.073,0 0.14323,-0.0081 0.20955,-0.0275 0.0688,-0.02185 0.13229,-0.05777 0.18732,-0.11029 0.0441,-0.04404 0.0773,-0.09622 0.0991,-0.159638 0.025,-0.06201 0.0388,-0.133911 0.0388,-0.214965 0,-0.07999 -0.0152,-0.149048 -0.0441,-0.20401 -0.0261,-0.05499 -0.0635,-0.0994 -0.11041,-0.132142 -0.055,-0.03598 -0.12136,-0.06204 -0.19827,-0.07721 -0.0772,-0.01794 -0.16404,-0.02783 -0.25929,-0.02783 -0.0921,0 -0.18026,0.0085 -0.26459,0.02222 l -0.21483,0.03311 v -1.190761 h 1.38888 v 0.270294 h -1.09114 v 0.617401 l 0.13758,-0.0056 0.12136,-0.0056 c 0.12418,0 0.23284,0.01126 0.32526,0.03314 0.0949,0.01938 0.18309,0.05496 0.26459,0.11026 0.0801,0.05499 0.14323,0.129364 0.18732,0.220642 0.0469,0.08807 0.0716,0.201203 0.0716,0.336152 z"
     id="path30" />
  <path
     style="fill:none;stroke:#0000ff;stroke-width:0.05mm"
     d="m -640.07269,12.263374 c 0,0.416168 -0.0663,0.721008 -0.19861,0.915161 -0.12947,0.195587 -0.32915,0.292145 -0.60078,0.292145 -0.27975,0 -0.48366,-0.09656 -0.61172,-0.292145 -0.12558,-0.198395 -0.18732,-0.5018 -0.18732,-0.909515 0,-0.410553 0.0631,-0.713959 0.19261,-0.909546 0.12841,-0.194153 0.33091,-0.292114 0.60643,-0.292114 0.27551,0 0.47695,0.09936 0.60642,0.29776 0.12806,0.198394 0.19297,0.498626 0.19297,0.898254 z"
     id="path31" />
  <path
     style="fill:none;stroke:#0000ff;stroke-width:0.05mm"
     d="m -640.4805,12.968879 c 0.0356,-0.08389 0.0603,-0.181854 0.0716,-0.292144 0.0137,-0.112763 0.0219,-0.25055 0.0219,-0.413361 0,-0.154358 -0.008,-0.287933 -0.0219,-0.402435 -0.0113,-0.117005 -0.0374,-0.216034 -0.0773,-0.297425 -0.0332,-0.07999 -0.0825,-0.140625 -0.14887,-0.181854 -0.0635,-0.04016 -0.14182,-0.06061 -0.23707,-0.06061 -0.0991,0 -0.18062,0.02045 -0.24236,0.06061 -0.0635,0.04123 -0.11466,0.101868 -0.15452,0.181854 -0.0332,0.07718 -0.0579,0.179017 -0.0716,0.30304 -0.0109,0.121246 -0.0166,0.256226 -0.0166,0.402466 0,0.162445 0.006,0.29776 0.0166,0.407715 0.0109,0.107483 0.0346,0.202636 0.0716,0.286834 0.0332,0.08142 0.0801,0.143433 0.14323,0.18747 0.0663,0.04123 0.15028,0.06061 0.25365,0.06061 0.0952,0 0.17356,-0.01938 0.23707,-0.06061 0.0663,-0.04016 0.11712,-0.100769 0.15451,-0.18216 z"
     id="path32" />
  <path
     style="fill:none;stroke:#0000ff;stroke-width:0.05mm"
     d="m -611.74992,13.420997 h -1.2513 v -0.236816 h 0.48506 v -1.543488 h -0.48506 v -0.214965 c 0.0663,0 0.1351,-0.0057 0.20954,-0.01657 0.0773,-0.01089 0.1337,-0.02502 0.17075,-0.04404 0.0469,-0.02503 0.084,-0.05814 0.11041,-0.09937 0.0289,-0.03983 0.0455,-0.09375 0.0494,-0.159637 h 0.24271 v 2.078064 h 0.46849 z"
     id="path33" />
  <path
     style="fill:none;stroke:#0000ff;stroke-width:0.05mm"
     d="m -609.61385,12.687996 c 0,0.107483 -0.0208,0.20935 -0.0607,0.308715 -0.0374,0.09903 -0.091,0.181824 -0.15981,0.248078 -0.0744,0.07437 -0.16264,0.130737 -0.26458,0.170563 -0.10336,0.03595 -0.22331,0.05533 -0.35843,0.05533 -0.12947,0 -0.25223,-0.01514 -0.36935,-0.04404 -0.11431,-0.02502 -0.21202,-0.05673 -0.2921,-0.09375 v -0.325256 h 0.0222 c 0.084,0.05496 0.18309,0.101837 0.2974,0.137756 0.11324,0.03738 0.22612,0.05499 0.33619,0.05499 0.073,0 0.14358,-0.0081 0.20955,-0.0275 0.0688,-0.02185 0.1323,-0.05777 0.18732,-0.11029 0.0441,-0.04404 0.0773,-0.09622 0.0995,-0.159638 0.0247,-0.06201 0.0385,-0.133911 0.0385,-0.214965 0,-0.07999 -0.0152,-0.149048 -0.0441,-0.20401 -0.0261,-0.05499 -0.0635,-0.0994 -0.11042,-0.132142 -0.055,-0.03598 -0.121,-0.06204 -0.19826,-0.07721 -0.0773,-0.01794 -0.16404,-0.02783 -0.25893,-0.02783 -0.0924,0 -0.18063,0.0085 -0.26459,0.02222 l -0.21519,0.03311 v -1.190761 h 1.38923 v 0.270294 h -1.09149 v 0.617401 l 0.13794,-0.0056 0.121,-0.0056 c 0.12418,0 0.23319,0.01126 0.32526,0.03314 0.0953,0.01938 0.18344,0.05496 0.26459,0.11026 0.0801,0.05499 0.14322,0.129364 0.18767,0.220642 0.0466,0.08807 0.0716,0.201203 0.0716,0.336152 z"
     id="path34" />
  <path
     style="fill:none;stroke:#0000ff;stroke-width:0.05mm"
     d="m -607.57586,12.263374 c 0,0.416168 -0.0663,0.721008 -0.19861,0.915161 -0.12946,0.195587 -0.32914,0.292145 -0.60079,0.292145 -0.27974,0 -0.48365,-0.09656 -0.61171,-0.292145 -0.12559,-0.198395 -0.18733,-0.5018 -0.18733,-0.909515 0,-0.410553 0.0632,-0.713959 0.19298,-0.909546 0.12805,-0.194153 0.33055,-0.292114 0.60606,-0.292114 0.27588,0 0.47696,0.09936 0.60643,0.29776 0.12806,0.198394 0.19297,0.498626 0.19297,0.898254 z"
     id="path35" />
  <path
     style="fill:none;stroke:#0000ff;stroke-width:0.05mm"
     d="m -607.98367,12.968879 c 0.0356,-0.08389 0.0607,-0.181854 0.0716,-0.292144 0.0138,-0.112763 0.0219,-0.25055 0.0219,-0.413361 0,-0.154358 -0.008,-0.287933 -0.0219,-0.402435 -0.0109,-0.117005 -0.0374,-0.216034 -0.0773,-0.297425 -0.0332,-0.07999 -0.0826,-0.140625 -0.14887,-0.181854 -0.0631,-0.04016 -0.14182,-0.06061 -0.23708,-0.06061 -0.0991,0 -0.18026,0.02045 -0.24235,0.06061 -0.0635,0.04123 -0.1143,0.101868 -0.15452,0.181854 -0.0328,0.07718 -0.0579,0.179017 -0.0716,0.30304 -0.0109,0.121246 -0.0166,0.256226 -0.0166,0.402466 0,0.162445 0.006,0.29776 0.0166,0.407715 0.0109,0.107483 0.0346,0.202636 0.0716,0.286834 0.0332,0.08142 0.0801,0.143433 0.14359,0.18747 0.066,0.04123 0.14992,0.06061 0.25328,0.06061 0.0953,0 0.17393,-0.01938 0.23708,-0.06061 0.0663,-0.04016 0.11712,-0.100769 0.15451,-0.18216 z"
     id="path36" />
  <path
     style="fill:none;stroke:#0000ff;stroke-width:0.05mm"
     d="m -628.01979,13.420997 h -1.56564 v -0.325256 l 0.32527,-0.275604 c 0.11041,-0.09512 0.21237,-0.188874 0.30868,-0.281189 0.19861,-0.189942 0.33372,-0.342865 0.40816,-0.457398 0.073,-0.113128 0.11007,-0.234375 0.11007,-0.363678 0,-0.121216 -0.0413,-0.214966 -0.12136,-0.281219 -0.0769,-0.06873 -0.18732,-0.104645 -0.33056,-0.104645 -0.0924,0 -0.19296,0.01654 -0.30338,0.04965 -0.11007,0.03278 -0.21766,0.0853 -0.31962,0.154358 h -0.0166 V 11.21076 c 0.073,-0.03595 0.1711,-0.06906 0.2921,-0.0994 0.12418,-0.03311 0.24412,-0.04965 0.35842,-0.04965 0.23425,0 0.42016,0.05954 0.55669,0.176544 0.13511,0.114166 0.2039,0.268524 0.2039,0.463043 0,0.08811 -0.0137,0.170899 -0.0384,0.248078 -0.0222,0.07437 -0.0536,0.145904 -0.0938,0.214965 -0.0413,0.06345 -0.0882,0.125458 -0.14324,0.1875 -0.055,0.06305 -0.12135,0.130707 -0.19825,0.203644 -0.11042,0.110321 -0.22473,0.217804 -0.34185,0.320008 l -0.3309,0.280853 h 1.24037 z"
     id="path37" />
  <path
     style="fill:none;stroke:#0000ff;stroke-width:0.05mm"
     d="m -625.99979,12.263374 c 0,0.416168 -0.066,0.721008 -0.19827,0.915161 -0.12947,0.195587 -0.32949,0.292145 -0.60077,0.292145 -0.27976,0 -0.48366,-0.09656 -0.61208,-0.292145 -0.12523,-0.198395 -0.18732,-0.5018 -0.18732,-0.909515 0,-0.410553 0.0635,-0.713959 0.19298,-0.909546 0.12805,-0.194153 0.3309,-0.292114 0.60642,-0.292114 0.27552,0 0.4766,0.09936 0.60642,0.29776 0.12806,0.198394 0.19262,0.498626 0.19262,0.898254 z"
     id="path38" />
  <path
     style="fill:none;stroke:#0000ff;stroke-width:0.05mm"
     d="m -626.4076,12.968879 c 0.036,-0.08389 0.0607,-0.181854 0.0716,-0.292144 0.0138,-0.112763 0.0222,-0.25055 0.0222,-0.413361 0,-0.154358 -0.008,-0.287933 -0.0222,-0.402435 -0.0109,-0.117005 -0.037,-0.216034 -0.0769,-0.297425 -0.0332,-0.07999 -0.0829,-0.140625 -0.14888,-0.181854 -0.0635,-0.04016 -0.14217,-0.06061 -0.23706,-0.06061 -0.0991,0 -0.18063,0.02045 -0.24272,0.06061 -0.0631,0.04123 -0.11429,0.101868 -0.15416,0.181854 -0.0332,0.07718 -0.0579,0.179017 -0.0716,0.30304 -0.0113,0.121246 -0.0166,0.256226 -0.0166,0.402466 0,0.162445 0.005,0.29776 0.0166,0.407715 0.0109,0.107483 0.0342,0.202636 0.0716,0.286834 0.0332,0.08142 0.0797,0.143433 0.14323,0.18747 0.0663,0.04123 0.15028,0.06061 0.25365,0.06061 0.0949,0 0.17357,-0.01938 0.23706,-0.06061 0.066,-0.04016 0.11712,-0.100769 0.15417,-0.18216 z"
     id="path39" />
  <path
     style="fill:none;stroke:#0000ff;stroke-width:0.05mm"
     d="m -623.97802,12.263374 c 0,0.416168 -0.0663,0.721008 -0.19862,0.915161 -0.12946,0.195587 -0.32914,0.292145 -0.60078,0.292145 -0.27975,0 -0.48365,-0.09656 -0.61171,-0.292145 -0.12559,-0.198395 -0.18733,-0.5018 -0.18733,-0.909515 0,-0.410553 0.0632,-0.713959 0.19297,-0.909546 0.12806,-0.194153 0.33055,-0.292114 0.60607,-0.292114 0.27587,0 0.47695,0.09936 0.60643,0.29776 0.12806,0.198394 0.19297,0.498626 0.19297,0.898254 z"
     id="path40" />
  <path
     style="fill:none;stroke:#0000ff;stroke-width:0.05mm"
     d="m -624.38584,12.968879 c 0.0356,-0.08389 0.0607,-0.181854 0.0716,-0.292144 0.0137,-0.112763 0.0219,-0.25055 0.0219,-0.413361 0,-0.154358 -0.008,-0.287933 -0.0219,-0.402435 -0.0109,-0.117005 -0.0374,-0.216034 -0.0773,-0.297425 -0.0331,-0.07999 -0.0825,-0.140625 -0.14887,-0.181854 -0.0635,-0.04016 -0.14182,-0.06061 -0.23707,-0.06061 -0.0991,0 -0.18026,0.02045 -0.24236,0.06061 -0.0635,0.04123 -0.1143,0.101868 -0.15451,0.181854 -0.0328,0.07718 -0.0579,0.179017 -0.0716,0.30304 -0.0109,0.121246 -0.0166,0.256226 -0.0166,0.402466 0,0.162445 0.006,0.29776 0.0166,0.407715 0.0109,0.107483 0.0346,0.202636 0.0716,0.286834 0.0332,0.08142 0.0801,0.143433 0.14358,0.18747 0.066,0.04123 0.14993,0.06061 0.25329,0.06061 0.0953,0 0.17357,-0.01938 0.23707,-0.06061 0.0663,-0.04016 0.11712,-0.100769 0.15451,-0.18216 z"
     id="path41" />
  <path
     style="fill:none;stroke:#0000ff;stroke-width:0.05mm"
     d="m -690.10928,41.264442 h -1.2513 V 41.02726 h 0.48507 v -1.543488 h -0.48507 v -0.214966 c 0.066,0 0.13512,-0.0053 0.20955,-0.01654 0.0769,-0.01096 0.1337,-0.02469 0.17075,-0.04407 0.0469,-0.02466 0.084,-0.0578 0.11042,-0.09903 0.0289,-0.04016 0.0455,-0.09372 0.0494,-0.159973 h 0.24272 v 2.078064 h 0.46848 z"
     id="path42" />
  <path
     style="fill:none;stroke:#0000ff;stroke-width:0.05mm"
     d="m -687.95557,41.264442 h -1.56527 v -0.325287 l 0.32526,-0.275573 c 0.11007,-0.09515 0.21202,-0.188874 0.30868,-0.28122 0.19826,-0.190277 0.33337,-0.343231 0.40781,-0.457397 0.073,-0.113129 0.11007,-0.234345 0.11007,-0.364014 0,-0.121216 -0.0413,-0.214966 -0.12101,-0.280853 -0.0773,-0.06906 -0.18767,-0.105042 -0.3309,-0.105042 -0.0924,0 -0.19297,0.0166 -0.30304,0.04971 -0.11042,0.03311 -0.21766,0.08563 -0.31961,0.154328 h -0.0166 v -0.325257 c 0.073,-0.03558 0.17074,-0.06869 0.2921,-0.099 0.12382,-0.03314 0.24376,-0.04971 0.35806,-0.04971 0.23425,0 0.42052,0.0592 0.55704,0.176209 0.13476,0.114532 0.20391,0.26886 0.20391,0.463043 0,0.08844 -0.0138,0.170929 -0.0388,0.248077 -0.0219,0.07437 -0.0536,0.146241 -0.0935,0.214966 -0.0416,0.06342 -0.0882,0.125458 -0.14358,0.18747 -0.055,0.06345 -0.121,0.131103 -0.19826,0.20404 -0.11042,0.110321 -0.22472,0.217804 -0.34184,0.319611 l -0.33055,0.28125 h 1.24001 z"
     id="path43" />
  <path
     style="fill:none;stroke:#0000ff;stroke-width:0.05mm"
     d="m -687.35726,40.823219 h 0.37465 v 0.440857 h -0.37465 z"
     id="path44" />
  <path
     style="fill:none;stroke:#0000ff;stroke-width:0.05mm"
     d="m -684.79574,40.531105 c 0,0.107452 -0.0205,0.209656 -0.0607,0.308685 -0.037,0.09937 -0.0907,0.181824 -0.1598,0.248077 -0.0744,0.07437 -0.16263,0.131104 -0.26459,0.170929 -0.10336,0.03592 -0.22295,0.05496 -0.35807,0.05496 -0.12947,0 -0.25223,-0.01517 -0.36935,-0.04407 -0.1143,-0.02463 -0.21238,-0.05637 -0.2921,-0.09372 v -0.325257 h 0.0219 c 0.084,0.05533 0.18344,0.102204 0.29774,0.138123 0.11289,0.03702 0.22613,0.05496 0.3362,0.05496 0.073,0 0.14323,-0.0084 0.20955,-0.02747 0.0688,-0.02219 0.13229,-0.05814 0.18732,-0.11029 0.0441,-0.04404 0.0773,-0.09656 0.0991,-0.160004 0.025,-0.06201 0.0388,-0.133545 0.0388,-0.214935 0,-0.08002 -0.0152,-0.148743 -0.0441,-0.204041 -0.0261,-0.05499 -0.0635,-0.09903 -0.11042,-0.132171 -0.055,-0.03592 -0.12135,-0.06201 -0.19826,-0.07718 -0.0773,-0.01797 -0.16404,-0.02747 -0.25929,-0.02747 -0.0921,0 -0.18027,0.0081 -0.26458,0.02185 l -0.21484,0.03311 v -1.19035 h 1.38888 v 0.269928 h -1.09114 v 0.617401 l 0.13758,-0.0056 0.12136,-0.0053 c 0.12418,0 0.23283,0.01096 0.32526,0.03314 0.0949,0.01901 0.18309,0.05496 0.26458,0.109955 0.0801,0.0553 0.14323,0.129669 0.18733,0.220581 0.0469,0.0881 0.0716,0.201232 0.0716,0.336212 z"
     id="path45" />
  <path
     style="fill:none;stroke:#0000ff;stroke-width:0.05mm"
     d="m -688.53695,57.736076 h -1.2513 v -0.237152 h 0.48507 v -1.543518 h -0.48507 v -0.214951 c 0.066,0 0.13512,-0.0053 0.20955,-0.01656 0.0773,-0.01094 0.1337,-0.02467 0.17075,-0.04405 0.0469,-0.02467 0.084,-0.05779 0.11042,-0.09903 0.0289,-0.04018 0.0455,-0.09375 0.0494,-0.159973 h 0.24272 v 2.078079 h 0.46848 z"
     id="path46" />
  <path
     style="fill:none;stroke:#0000ff;stroke-width:0.05mm"
     d="m -686.39982,57.002739 c 0,0.107467 -0.0205,0.209686 -0.0603,0.308685 -0.0374,0.0994 -0.091,0.181854 -0.16016,0.248093 -0.0741,0.07437 -0.16228,0.131088 -0.26459,0.170913 -0.10336,0.03593 -0.22295,0.05498 -0.35807,0.05498 -0.12947,0 -0.25223,-0.01517 -0.36935,-0.04405 -0.1143,-0.02466 -0.21238,-0.05638 -0.2921,-0.09374 v -0.324921 h 0.0219 c 0.0843,0.05498 0.18344,0.101853 0.29774,0.137818 0.11289,0.03699 0.22613,0.05495 0.3362,0.05495 0.073,0 0.14323,-0.0081 0.20955,-0.02748 0.0688,-0.0222 0.13229,-0.05778 0.18732,-0.110305 0.0441,-0.04404 0.0773,-0.09654 0.0991,-0.159989 0.0251,-0.06203 0.0388,-0.13356 0.0388,-0.21495 0,-0.07964 -0.0152,-0.148713 -0.0441,-0.20369 -0.0261,-0.05533 -0.0635,-0.09936 -0.11042,-0.132507 -0.055,-0.03558 -0.121,-0.06201 -0.19826,-0.07716 -0.0773,-0.01796 -0.16404,-0.02748 -0.25929,-0.02748 -0.0921,0 -0.18027,0.0081 -0.26458,0.02219 l -0.21484,0.03279 v -1.190384 h 1.38923 v 0.269913 h -1.09149 v 0.617401 l 0.13758,-0.0056 0.12136,-0.0053 c 0.12418,0 0.23283,0.01093 0.32526,0.03313 0.0952,0.01904 0.18344,0.05498 0.26458,0.11029 0.0801,0.05498 0.14323,0.129349 0.18733,0.220246 0.0469,0.08812 0.0716,0.201233 0.0716,0.336197 z"
     id="path47" />
  <path
     style="fill:none;stroke:#0000ff;stroke-width:0.05mm"
     d="m -690.10928,74.247535 h -1.2513 v -0.236801 h 0.48507 v -1.543487 h -0.48507 v -0.214966 c 0.066,0 0.13512,-0.0056 0.20955,-0.01657 0.0769,-0.01093 0.1337,-0.02466 0.17075,-0.04405 0.0469,-0.02502 0.084,-0.05777 0.11042,-0.09938 0.0289,-0.03981 0.0455,-0.09372 0.0494,-0.159607 h 0.24272 v 2.078064 h 0.46848 z"
     id="path48" />
  <path
     style="fill:none;stroke:#0000ff;stroke-width:0.05mm"
     d="m -687.94992,72.285408 -1.04176,1.962127 h -0.33619 l 1.11336,-2.039306 h -1.31727 V 71.93795 h 1.58186 z"
     id="path49" />
  <path
     style="fill:none;stroke:#0000ff;stroke-width:0.05mm"
     d="m -687.35726,73.806694 h 0.37465 v 0.440841 h -0.37465 z"
     id="path50" />
  <path
     style="fill:none;stroke:#0000ff;stroke-width:0.05mm"
     d="m -684.79574,73.514564 c 0,0.107468 -0.0205,0.20932 -0.0607,0.308686 -0.037,0.09903 -0.0907,0.181839 -0.1598,0.248092 -0.0744,0.07437 -0.16263,0.130737 -0.26459,0.170914 -0.10336,0.0356 -0.22295,0.05498 -0.35807,0.05498 -0.12947,0 -0.25223,-0.01517 -0.36935,-0.04405 -0.1143,-0.02502 -0.21238,-0.0564 -0.2921,-0.09373 V 73.8342 h 0.0219 c 0.084,0.05531 0.18344,0.101837 0.29774,0.137787 0.11289,0.03735 0.22613,0.05531 0.3362,0.05531 0.073,0 0.14323,-0.0084 0.20955,-0.02785 0.0688,-0.02184 0.13229,-0.05778 0.18732,-0.10994 0.0441,-0.0444 0.0773,-0.09654 0.0991,-0.159988 0.025,-0.06203 0.0388,-0.13356 0.0388,-0.214951 0,-0.08 -0.0152,-0.148712 -0.0441,-0.204056 -0.0261,-0.05496 -0.0635,-0.09901 -0.11042,-0.132141 -0.055,-0.03593 -0.12135,-0.06201 -0.19826,-0.07716 -0.0773,-0.01798 -0.16404,-0.02785 -0.25929,-0.02785 -0.0921,0 -0.18027,0.0085 -0.26458,0.0222 l -0.21484,0.03311 v -1.190719 h 1.38888 v 0.270279 h -1.09114 v 0.617401 l 0.13758,-0.0056 0.12136,-0.0056 c 0.12418,0 0.23283,0.01128 0.32526,0.03311 0.0949,0.01938 0.18309,0.05534 0.26458,0.110306 0.0801,0.05498 0.14323,0.1297 0.18733,0.220596 0.0469,0.08812 0.0716,0.201218 0.0716,0.336197 z"
     id="path51" />
  <path
     style="fill:none;stroke:#0000ff;stroke-width:0.05mm"
     d="m -688.27377,90.80059 h -1.56563 v -0.325256 l 0.32526,-0.275559 c 0.11042,-0.09517 0.21237,-0.188903 0.30868,-0.281234 0.19861,-0.189926 0.33373,-0.342865 0.40816,-0.457398 0.073,-0.113128 0.11007,-0.23436 0.11007,-0.363678 0,-0.121216 -0.0413,-0.214966 -0.12135,-0.281204 -0.0769,-0.06908 -0.18733,-0.10466 -0.33056,-0.10466 -0.0924,0 -0.19297,0.01656 -0.30339,0.04967 -0.11006,0.03278 -0.21766,0.0853 -0.31961,0.154358 h -0.0166 v -0.325256 c 0.073,-0.03594 0.17109,-0.06908 0.2921,-0.09937 0.12417,-0.03314 0.24412,-0.0497 0.35842,-0.0497 0.23424,0 0.42051,0.05922 0.55668,0.176559 0.13512,0.114166 0.20391,0.268509 0.20391,0.463028 0,0.0881 -0.0138,0.170914 -0.0385,0.248093 -0.0222,0.07436 -0.0536,0.145889 -0.0938,0.214966 -0.0413,0.06343 -0.0882,0.125442 -0.14323,0.187484 -0.055,0.06307 -0.12136,0.130738 -0.19826,0.203659 -0.11042,0.110306 -0.22472,0.217804 -0.34184,0.319993 l -0.33091,0.280853 h 1.24037 z"
     id="path52" />
  <path
     style="fill:none;stroke:#0000ff;stroke-width:0.05mm"
     d="m -686.25236,89.642982 c 0,0.416168 -0.066,0.720642 -0.19826,0.915161 -0.12947,0.195572 -0.32949,0.292145 -0.60078,0.292145 -0.27975,0 -0.48366,-0.09657 -0.61207,-0.292145 -0.12523,-0.198394 -0.18732,-0.501815 -0.18732,-0.90953 0,-0.410538 0.0635,-0.713944 0.19297,-0.909546 0.12806,-0.194153 0.3309,-0.292114 0.60642,-0.292114 0.27552,0 0.4766,0.09901 0.60643,0.29776 0.12806,0.19841 0.19261,0.498657 0.19261,0.898269 z"
     id="path53" />
  <path
     style="fill:none;stroke:#0000ff;stroke-width:0.05mm"
     d="m -686.66017,90.348472 c 0.036,-0.08386 0.0607,-0.181839 0.0716,-0.292144 0.0137,-0.112763 0.0222,-0.25055 0.0222,-0.413346 0,-0.154373 -0.008,-0.287903 -0.0222,-0.40245 -0.0109,-0.11699 -0.0371,-0.216355 -0.0769,-0.297409 -0.0332,-0.08 -0.0829,-0.140625 -0.14887,-0.181855 -0.0635,-0.04016 -0.14217,-0.06096 -0.23707,-0.06096 -0.0991,0 -0.18062,0.0208 -0.24271,0.06096 -0.0632,0.04123 -0.1143,0.101853 -0.15416,0.181855 -0.0332,0.07718 -0.0579,0.179016 -0.0716,0.303039 -0.0113,0.121231 -0.0166,0.256195 -0.0166,0.402451 0,0.16246 0.005,0.297775 0.0166,0.407715 0.0109,0.107482 0.0342,0.202636 0.0716,0.286849 0.0332,0.08106 0.0797,0.143067 0.14322,0.18747 0.0663,0.04123 0.15029,0.06061 0.25365,0.06061 0.0949,0 0.17357,-0.01938 0.23707,-0.06061 0.066,-0.04016 0.11712,-0.100784 0.15416,-0.182175 z"
     id="path54" />
  <path
     style="fill:#ff0000;fill-rule:evenodd;stroke:none"
     d="m -680.86262,18.704444 h 9.44385 v 9.432557 h -9.44385 z"
     id="path55" />
  <path
     style="fill:#00e000;fill-rule:evenodd;stroke:none"
     d="m -680.86262,35.215919 h 9.44385 v 9.43396 h -9.44385 z"
     id="path56" />
  <path
     style="fill:#d0d000;fill-rule:evenodd;stroke:none"
     d="m -680.86262,51.729148 h 9.44385 v 9.432556 h -9.44385 z"
     id="path57" />
  <path
     style="fill:#ff8000;fill-rule:evenodd;stroke:none"
     d="m -680.86262,68.240608 h 9.44385 v 9.432556 h -9.44385 z"
     id="path58" />
  <path
     style="fill:#00e0e0;fill-rule:evenodd;stroke:none"
     d="m -680.86262,84.752433 h 9.44385 v 9.43396 h -9.44385 z"
     id="path59" />
  <path
     style="fill:#ff00ff;fill-rule:evenodd;stroke:none"
     d="m -664.3332,18.704444 h 9.44384 v 9.432557 h -9.44384 z"
     id="path60" />
  <path
     style="fill:#b4b4b4;fill-rule:evenodd;stroke:none"
     d="m -664.3332,35.215919 h 9.44384 v 9.43396 h -9.44384 z"
     id="path61" />
  <path
     style="fill:#0000a0;fill-rule:evenodd;stroke:none"
     d="m -664.3332,51.729148 h 9.44384 v 9.432556 h -9.44384 z"
     id="path62" />
  <path
     style="fill:#a00000;fill-rule:evenodd;stroke:none"
     d="m -664.3332,68.240608 h 9.44384 v 9.432556 h -9.44384 z"
     id="path63" />
  <path
     style="fill:#00a000;fill-rule:evenodd;stroke:none"
     d="m -664.3332,84.752433 h 9.44384 v 9.43396 h -9.44384 z"
     id="path64" />
  <path
     style="fill:#a0a000;fill-rule:evenodd;stroke:none"
     d="m -647.80201,18.704444 h 9.44384 v 9.432557 h -9.44384 z"
     id="path65" />
  <path
     style="fill:#c08000;fill-rule:evenodd;stroke:none"
     d="m -647.80201,35.215919 h 9.44384 v 9.43396 h -9.44384 z"
     id="path66" />
  <path
     style="fill:#00a0ff;fill-rule:evenodd;stroke:none"
     d="m -647.80201,51.729148 h 9.44384 v 9.432556 h -9.44384 z"
     id="path67" />
  <path
     style="fill:#a000a0;fill-rule:evenodd;stroke:none"
     d="m -647.80201,68.240608 h 9.44384 v 9.432556 h -9.44384 z"
     id="path68" />
  <path
     style="fill:#808080;fill-rule:evenodd;stroke:none"
     d="m -647.80201,84.752433 h 9.44384 v 9.43396 h -9.44384 z"
     id="path69" />
  <path
     style="fill:#7d87b9;fill-rule:evenodd;stroke:none"
     d="m -631.27266,18.704444 h 9.44385 v 9.432557 h -9.44385 z"
     id="path70" />
  <path
     style="fill:#bb7784;fill-rule:evenodd;stroke:none"
     d="m -631.27266,35.215919 h 9.44385 v 9.43396 h -9.44385 z"
     id="path71" />
  <path
     style="fill:#4a6fe3;fill-rule:evenodd;stroke:none"
     d="m -631.27266,51.729148 h 9.44385 v 9.432556 h -9.44385 z"
     id="path72" />
  <path
     style="fill:#d33f6a;fill-rule:evenodd;stroke:none"
     d="m -631.27266,68.240608 h 9.44385 v 9.432556 h -9.44385 z"
     id="path73" />
  <path
     style="fill:#8cd78c;fill-rule:evenodd;stroke:none"
     d="m -631.27266,84.752433 h 9.44385 v 9.43396 h -9.44385 z"
     id="path74" />
  <path
     style="fill:#f0b98d;fill-rule:evenodd;stroke:none"
     d="m -614.74183,18.704444 h 9.44244 v 9.432557 h -9.44244 z"
     id="path75" />
  <path
     style="fill:#f6c4e1;fill-rule:evenodd;stroke:none"
     d="m -614.74183,35.215919 h 9.44244 v 9.43396 h -9.44244 z"
     id="path76" />
  <path
     style="fill:#fa9ed4;fill-rule:evenodd;stroke:none"
     d="m -614.74183,51.729148 h 9.44244 v 9.432556 h -9.44244 z"
     id="path77" />
  <path
     style="fill:#500a78;fill-rule:evenodd;stroke:none"
     d="m -614.74183,68.240608 h 9.44244 v 9.432556 h -9.44244 z"
     id="path78" />
  <path
     style="fill:#b45a00;fill-rule:evenodd;stroke:none"
     d="m -614.74183,84.752433 h 9.44244 v 9.43396 h -9.44244 z"
     id="path79" />
</svg>
